<svg width="160" height="39" viewBox="0 0 160 39" fill="none" xmlns="http://www.w3.org/2000/svg">
<g id="Group 1000003989">
<path id="Vector" d="M90.5047 20.2476C90.4564 20.4578 90.3173 20.6338 90.1902 20.6338L90.1116 20.6736C89.6701 20.9064 89.1862 21.0768 88.7024 21.2472L88.5391 21.304C88.3757 21.3949 88.0673 21.5425 87.8495 21.6334C87.6318 21.7243 87.0996 21.9401 86.9 22.0139C86.7004 22.0878 86.2649 22.3831 86.1621 22.4001C86.0593 22.4172 85.6722 22.6784 85.3395 22.7863C85.0069 22.8942 84.2387 23.3599 84.142 23.3543C84.0452 23.3486 83.773 23.5076 83.6944 23.5758C83.6157 23.6439 83.2891 23.8313 83.1924 23.8654C83.0956 23.8995 82.7085 24.0642 82.5573 24.1494C82.4061 24.2346 81.8436 24.5696 81.5956 24.6719C81.3476 24.7741 80.5795 25.0581 80.4646 25.1603L80.392 25.183L80.1017 25.2682C79.8416 25.4329 79.3033 25.7282 78.9041 25.927L78.5412 26.1144C78.3719 26.1996 78.2086 26.3019 78.0211 26.3586L77.6521 26.4779C77.2892 26.7051 76.9142 26.8755 76.8235 26.8471C76.7328 26.8187 76.4788 27.0572 76.4001 27.131C76.3215 27.2049 75.9828 27.3582 75.8618 27.3753C75.7409 27.3923 75.2872 27.5002 75.009 27.5002L74.9969 27.7842C74.9969 27.8466 74.7308 27.9148 74.5735 27.9489L74.5252 27.9602C74.4223 27.9489 74.1925 28.0795 74.0111 28.2556C73.8296 28.4316 72.9647 28.7099 72.7954 28.8008C72.626 28.8916 72.2873 29.2381 72.2631 29.1813C72.2389 29.1245 72.1361 29.1018 72.0817 29.2154C72.0272 29.329 71.622 29.4312 71.628 29.4709C71.6341 29.5107 71.5676 29.5845 71.4708 29.5448L71.374 29.5221C71.3438 29.5164 71.2833 29.5221 71.2591 29.5448C71.1502 29.647 71.0716 29.8231 70.9446 29.8458L70.751 29.8742C70.5877 29.948 70.2853 30.0957 70.0797 30.1979C69.874 30.3001 68.9789 30.7658 68.5857 31.0214L68.2108 31.2372C68.1321 31.2827 68.0414 31.3338 67.9446 31.3508C67.8176 31.3735 67.6664 31.3395 67.5515 31.3792C67.485 31.4019 67.491 31.5269 67.4245 31.578L67.3519 31.6405C67.243 31.6916 67.116 31.7881 67.0676 31.8449H67.0192L66.8317 31.8563C66.7168 31.9642 66.5717 32.1175 66.5051 32.2027C66.4386 32.2879 66.0152 32.1857 65.8761 32.2311L65.858 32.2936L65.8035 32.5094C65.5676 32.5662 65.3257 32.6627 65.2652 32.7252C65.2048 32.7877 64.8902 32.8615 64.7148 32.8842L64.6544 33.066L64.5939 33.2477C64.3519 33.367 64.1403 33.4579 64.1161 33.4522C64.0919 33.4465 63.989 33.4011 63.9225 33.3727C63.856 33.3443 63.6322 33.5544 63.5475 33.6339C63.4628 33.7134 62.9669 33.9633 62.6766 34.0939L62.4407 34.2643L62.1988 34.4347C61.854 34.554 61.473 34.7357 61.3399 34.8436C61.2068 34.9515 60.6867 35.0424 60.6564 35.0878C60.6262 35.1333 60.1665 35.4172 59.7371 35.6501L59.344 35.7466C59.223 35.775 59.0415 35.7523 58.975 35.8091L58.7815 35.9909C58.5274 36.1499 58.1827 36.1953 58.0133 36.0988L57.9226 36.343L57.8863 36.4452C57.723 36.5304 57.5113 36.6269 57.4267 36.6553C57.342 36.6837 56.8279 36.82 56.4952 36.9109C56.1626 37.0018 55.2493 37.4789 55.0557 37.5754L54.8682 37.6265L54.1303 37.8253C53.3562 38.1093 52.4913 38.3932 52.213 38.4557C51.9348 38.5182 51.1909 38.7113 51.1606 38.6886C51.1304 38.6658 50.9731 38.6545 50.8764 38.6602C50.7796 38.6658 50.4832 38.6545 50.4651 38.5977C50.4469 38.5409 50.2897 38.3762 50.1566 38.4273C50.0235 38.4784 49.703 38.5182 49.7151 38.4046C49.7272 38.291 49.2796 38.4443 49.1224 38.3876C48.9651 38.3308 48.5054 38.2569 48.457 38.3592L48.3784 38.3705L47.9127 38.4443C47.3925 38.4671 46.945 38.4784 46.9208 38.4727C46.8966 38.4671 46.7756 38.3705 46.6849 38.291C46.5942 38.2115 45.9651 38.1888 45.5781 37.9559L45.5539 37.6776C45.5539 37.6379 45.7353 37.0699 45.7595 37.0359L45.8018 36.9677C45.8442 36.8882 45.8986 36.7292 45.9228 36.6156C45.947 36.502 45.947 36.1328 45.8623 36.0533C45.7777 35.9738 45.4329 36.0193 45.4329 35.8489C45.4329 35.6785 45.2696 35.1957 45.07 35.1276C44.8704 35.0594 44.5136 34.5881 44.2474 34.5369L44.3986 34.2473L44.4712 34.1053C44.4349 33.9122 44.3442 33.5487 44.2716 33.2932C44.199 33.0376 43.6668 32.0039 43.437 31.4814L43.189 31.0157L43.1648 30.9703C43.2132 30.8965 43.2797 30.675 43.316 30.4705C43.3523 30.2661 43.1648 29.7322 43.1648 29.7038C43.1648 29.6754 43.2071 29.5902 43.2616 29.5107C43.316 29.4312 43.3402 29.1359 43.2011 29.0904C43.062 29.045 42.7354 29.4369 42.4995 29.5618C42.2636 29.6868 41.2414 30.2263 40.7273 30.4875C40.2132 30.7488 38.8342 31.5382 38.7132 31.5837C38.5923 31.6291 37.9754 31.9131 37.6064 32.0778C37.2375 32.2425 36.2153 32.8502 36.0157 32.9354C35.8161 33.0205 35.181 33.3954 34.9754 33.4749C34.7698 33.5544 34.1286 33.81 34.0198 33.8611C33.9109 33.9122 33.4573 34.1337 33.2395 34.2303C33.0218 34.3268 32.2113 34.5881 31.9755 34.6732C31.7396 34.7584 30.9956 35.031 30.8505 35.0878C30.7053 35.1446 30.0037 34.9686 29.9432 34.9459C29.8827 34.9231 29.7255 34.9913 29.8041 35.014C29.8827 35.0367 30.034 35.1787 29.9311 35.2525H29.8888L29.5864 35.3037C29.2416 35.3377 28.9211 35.3548 28.8727 35.3491C28.8243 35.3434 28.4916 35.2582 28.2437 35.1957C27.9957 35.1333 27.3183 34.9402 27.3546 34.696L27.034 34.5313L26.8405 34.429C26.6953 34.2132 26.6409 34.0485 26.7134 34.0712C26.786 34.0939 27.04 34.111 27.0461 34.0428C27.0521 33.9747 27.0159 33.7873 26.9433 33.7929L26.9191 33.81L26.7558 33.9236C26.5743 33.8668 26.2235 33.6453 25.9755 33.4351L25.8002 33.2193L25.7336 33.1398C25.782 32.9978 25.7397 32.8558 25.6429 32.8274C25.5461 32.7991 25.6973 32.5946 25.6973 32.5719C25.6973 32.5492 25.4796 32.4242 25.2256 32.2993L25.2619 32.0494C25.286 31.896 25.2256 31.7711 25.0623 31.6745L24.9413 31.6007C24.784 31.4701 24.7901 31.3395 24.9655 31.3054C25.1409 31.2713 25.528 31.0555 25.5945 30.9703C25.661 30.8851 25.9453 30.7204 26.1268 30.7488L26.2235 30.7034C26.3808 30.6352 26.4897 30.4989 26.6409 30.408L26.7376 30.3456C26.8707 30.3058 27.2275 30.232 27.53 30.1809L27.5542 29.789V29.7095C27.5542 29.63 27.6388 29.6072 27.7417 29.6584C27.8445 29.7095 28.1348 29.5675 28.0985 29.3517H28.4977C28.5642 29.3517 28.6489 29.2438 28.6912 29.1756L28.7094 29.1415C28.6549 29.0791 28.5884 29.045 28.5582 29.0677C28.5279 29.0904 28.3767 29.0677 28.4251 28.8746L28.4856 28.761C28.5158 28.7042 28.5763 28.6418 28.7215 28.7156L28.8243 28.7724C28.9936 28.7553 29.3686 28.6134 29.6469 28.4543L29.6348 28.1874V28.1363C29.6348 28.0795 29.6832 28 29.7376 27.9659C29.792 27.9318 29.9735 27.8864 29.9795 27.9659L30.0158 28.0454C30.034 28.0909 30.1065 28.1476 30.161 28.1533C30.2154 28.1533 30.3243 28.1079 30.3303 28.0738L30.3666 27.8921C30.5178 27.7387 30.6509 27.5797 30.669 27.54V27.3185C30.8868 27.2219 31.1105 27.1197 31.171 27.097C31.2315 27.0742 31.4613 27.0402 31.546 27.0345C31.6307 27.0288 31.6005 26.8641 31.546 26.8357C31.4916 26.8073 31.3041 26.5745 31.4432 26.4836C31.5823 26.3927 32.1388 26.4211 32.1871 26.3132C32.2355 26.2053 32.7012 26.0292 32.8101 25.927L32.9432 25.8589C33.1065 25.7737 33.1367 25.6885 32.9613 25.5863C32.9492 25.5806 33.0279 25.4386 33.0944 25.4215L33.2819 25.3648C33.5238 25.325 33.7355 25.3477 33.7537 25.4159C33.7718 25.484 33.8988 25.5067 34.0016 25.3023L33.802 25.1035L33.6992 25.0013C33.8625 25.0126 34.2194 24.9104 34.4915 24.7798L34.5762 24.564L34.5944 24.5128C34.4492 24.4163 34.3887 24.3084 34.4674 24.2686C34.546 24.2289 34.7093 24.0585 34.5883 24.0187L34.546 24.0415L34.2859 24.1721C34.0077 24.3254 33.7113 24.5299 33.6206 24.6321C33.5299 24.7343 33.1549 24.8593 33.1307 24.8195C33.1065 24.7798 32.9855 24.6889 32.919 24.7684C32.8525 24.8479 32.671 25.0126 32.6408 24.9956C32.6105 24.9786 32.6226 25.0524 32.7315 25.2171C32.8404 25.3818 32.175 25.5011 32.2053 25.4443C32.2355 25.3875 32.29 25.1887 32.2476 25.1944C32.2053 25.2001 31.7698 25.4102 31.3101 25.643C30.8505 25.8759 29.2779 26.7221 28.8303 26.9891L28.3949 27.1992L28.0017 27.3866C27.6025 27.6195 26.9977 27.9432 26.659 28.1022L26.411 28.3237L26.163 28.5509C25.8001 28.744 25.3526 28.9712 25.1651 29.0563C24.9776 29.1415 24.3728 29.4993 24.1369 29.5959C23.901 29.6924 22.9272 30.2547 22.4192 30.5273L21.9655 30.7772L21.7478 30.8965C21.518 30.9419 21.1672 31.1464 20.9797 31.3565H20.8103L20.2962 31.3395C19.9394 31.5837 19.4313 31.8563 19.1773 31.9415C18.9232 32.0267 18.1914 32.498 17.9616 32.5435C17.7317 32.5889 17.2297 33.0887 17.0422 33.208C16.8547 33.3272 16.1289 33.4522 16.0261 33.5033L15.9777 33.5714L15.8023 33.8213C15.4576 33.9406 14.9979 34.0939 14.7802 34.1678C14.5624 34.2416 13.9213 34.5994 13.758 34.6846L13.6008 34.7528C13.5161 34.7925 13.4012 34.7982 13.3225 34.8436C13.0685 34.9856 12.8508 35.2071 12.5725 35.2639L12.2943 35.3207C12.0282 35.4229 11.5685 35.5933 11.2722 35.6899C10.9758 35.7864 10.0927 35.6899 10.0262 35.741C9.95968 35.7921 9.66936 35.8829 9.5363 35.8262C9.40324 35.7694 8.91938 35.616 8.74398 35.5365C8.56858 35.457 7.84883 35.8262 7.4315 35.9114L7.02626 35.9284L6.68756 35.9454C6.37305 35.8546 5.992 35.616 5.84685 35.4172L5.88918 35.2753L5.96176 35.0254C6.04039 34.7528 6.11297 34.429 6.11902 34.2984C6.12507 34.1678 5.67145 34.0088 5.62911 33.986C5.58677 33.9633 5.37508 33.8781 5.27831 33.827C5.18153 33.7759 5.1271 33.4522 5.1271 33.3443C5.1271 33.2364 5.08476 32.9354 5.03638 32.907H5.01823L4.85493 32.941C4.67348 32.9808 4.57066 32.9183 4.61904 32.8104L4.46179 32.6855L4.29848 32.5548C4.2259 32.339 3.99607 31.7824 3.79043 31.3224L3.57874 30.9078L3.50616 30.7658C3.35495 30.6352 3.14931 30.4251 3.05254 30.3058C2.95576 30.1865 2.69569 29.7265 2.65335 29.5561L2.59891 29.4028C2.55053 29.2722 2.40537 29.1813 2.43561 29.0109L2.45376 28.8916C2.33279 28.744 2.21182 28.585 2.17553 28.5452L2.18763 28.5168L2.26626 28.3578C2.27836 28.1704 2.27836 27.9375 2.26626 27.8353C2.25416 27.7331 2.45376 27.2617 2.56867 26.9039L2.90133 26.654C2.96181 26.6085 2.87714 26.4552 2.93762 26.4041L3.03439 26.3189C3.19165 26.2621 3.30052 26.1996 3.27632 26.1769C3.25213 26.1542 3.25818 26.0804 3.36705 26.0747C3.47592 26.069 3.56664 25.7169 3.63922 25.5863C3.7118 25.4556 3.80857 25.2284 3.73599 25.1205L3.8872 25.0467L3.97792 25.0013C3.99607 24.9274 4.0505 24.8423 4.10494 24.8082L4.15333 24.7798L4.32268 24.6832C4.21986 24.5583 4.29244 24.4049 4.47388 24.3538C4.65533 24.3027 4.83073 23.8597 4.88517 23.7291C4.9396 23.5985 5.33274 23.3883 5.47185 23.3486L5.30855 23.2236C5.27831 23.2009 5.32669 23.0646 5.33879 23.0646L5.69564 23.0476C5.74402 22.8261 5.88918 22.5251 6.01015 22.3717C6.13112 22.2184 6.3791 21.7584 6.43958 21.7811C6.50006 21.8038 6.76014 21.764 6.8932 21.6504C7.02626 21.5369 7.34682 21.1677 7.26819 21.1279C7.18957 21.0882 6.91739 20.9803 6.88715 21.02C6.85691 21.0598 6.66941 21.1052 6.60288 20.9519L6.51821 20.9178L6.40934 20.878C6.24603 20.8951 5.99201 20.9235 5.8408 20.9519C5.68959 20.9803 5.15129 20.7758 4.89122 20.7588C4.63114 20.7417 3.84486 20.9235 3.71785 20.9576C3.59083 20.9916 3.24608 20.6054 3.5243 20.2817L3.1735 19.9182L3.10092 19.8387C3.13721 19.6854 3.10092 19.5491 3.01625 19.5434C2.93157 19.5377 2.72593 19.5036 2.70778 19.4809C2.68964 19.4582 2.67754 19.3446 2.67149 19.2651C2.66545 19.1856 2.68359 18.9016 2.69569 18.8108C2.70778 18.7199 2.39932 18.5211 2.40537 18.3962L2.33279 18.3507C2.22997 18.2826 2.04247 18.2883 1.90336 18.2485L1.78844 18.2144C1.64933 18.152 1.54046 17.9191 1.55256 17.7033C1.56466 17.4875 1.09894 16.982 1.08684 16.9479L1.10499 16.9309L1.43764 16.5958C1.08079 16.4368 0.621124 16.1642 0.427579 15.9995L0.403386 15.8007L0.373144 15.5565C0.385241 15.2725 0.348951 15.0624 0.294517 15.0794C0.240082 15.0964 0.10702 15.0567 0.0949232 14.9545L0.137261 14.9374C0.270324 14.8806 0.657414 14.892 0.155406 14.7898C0.131213 14.7898 0.100971 14.767 0.0949232 14.75C0.0404886 14.3865 -0.00184947 14.0287 0.270324 13.6993C0.324758 13.6312 0.469917 13.6085 0.554593 13.546C0.657414 13.4721 0.832814 13.3358 0.81467 13.3131C0.578786 13.0519 0.99007 13.2223 1.02031 13.1314C1.0566 13.0008 1.11104 12.8588 1.2199 12.7622C1.42555 12.5862 1.66143 12.4385 1.90336 12.2908L2.04852 12.2C2.1332 12.0693 2.42351 11.7399 2.68964 11.4617L3.17955 11.5298H3.22189C3.28237 11.4787 3.39729 11.3537 3.48196 11.2686C3.56664 11.1834 3.8751 11.0357 3.91744 10.9391C3.95978 10.8426 4.43155 10.8426 4.58275 10.7631C4.73396 10.6836 4.96984 10.411 5.12105 10.5359L5.27831 10.3428L5.2904 10.3315C5.17549 10.2463 5.18153 10.1724 5.30855 10.1724C5.43556 10.1724 5.71378 10.0816 5.67749 9.96797L5.71378 9.9055L5.81056 9.7408C6.02225 9.75216 6.20974 9.70104 6.21579 9.62721C6.22184 9.55338 6.45167 9.38868 6.60288 9.31485C6.75409 9.24101 7.29844 9.14447 7.46779 9.10471C7.63714 9.06495 7.9577 8.78666 8.04237 8.76395C8.12705 8.74123 8.39318 8.71851 8.38713 8.60493L8.39922 8.52541V8.49134C8.43551 8.45158 8.70769 8.40615 9.00405 8.38911V8.09946C9.27623 8.05403 9.65727 7.9234 9.85686 7.80413L10.0504 7.70758L10.1714 7.64511C10.3347 7.64511 10.5766 7.594 10.7157 7.52584L10.8488 7.46905C11.006 7.40658 11.1693 7.34978 11.3205 7.28163C11.4536 7.21916 11.5685 7.13397 11.7016 7.07717C11.7863 7.0431 11.9012 7.0431 12.004 7.03174C12.3064 6.99766 12.5786 6.94655 12.7117 6.6853C12.7661 6.57739 12.9173 6.48652 13.0564 6.42405C13.1108 6.39565 13.1955 6.58875 13.3467 6.44676L13.4677 6.33318C13.6431 6.23663 13.9092 6.23095 14.0544 6.31614L14.1753 6.15144C14.2116 6.106 14.254 6.06057 14.2842 6.01513L14.3084 5.98106C14.3326 5.9413 14.4657 5.90722 14.5987 5.90154C14.7318 5.89586 15.0765 5.70277 15.1794 5.72548C15.2822 5.7482 15.5181 5.5551 15.6269 5.5835L15.7297 5.52671C15.766 5.50399 15.8507 5.51535 15.8749 5.49263L16.2076 5.07236C16.8124 4.85086 17.3749 4.63504 17.4475 4.59529C17.52 4.55553 17.8708 4.4817 18.0704 4.41355C18.27 4.3454 18.7237 4.06143 18.8083 4.10686C18.893 4.1523 19.2015 4.24317 19.3527 4.0955L19.5341 4.03871L19.7156 3.98192C19.9756 4.00463 20.1571 3.98192 20.1148 3.92512C20.0724 3.86833 20.1208 3.69227 20.3385 3.68659L20.4414 3.62412L20.5744 3.53893C20.6652 3.59004 20.9192 3.53893 21.149 3.41966L21.3607 3.31743L21.4272 3.28335C21.5422 3.30039 21.5966 3.35719 21.5422 3.40262L21.5059 3.45373C21.5059 3.45373 21.5724 3.52189 21.6026 3.51621H21.6752C21.7478 3.48213 21.8506 3.31743 21.9051 3.14137L22.153 3.07322C22.5825 2.95395 23.0724 2.94827 23.399 2.64726C23.4232 2.62455 23.5018 2.64158 23.5562 2.64726L23.7377 2.6643C23.9373 2.68702 24.1732 2.6643 24.2518 2.62455C24.3304 2.58479 24.7236 2.45984 24.9292 2.40305C25.1348 2.34626 25.6368 2.15316 25.7094 2.19859C25.782 2.24403 26.0179 2.34626 26.0239 2.30082C26.03 2.25539 26.2538 2.18723 26.4534 2.17588C26.653 2.16452 27.2759 1.98278 27.4453 1.93734C27.6146 1.89191 28.032 2.10772 28.0864 2.10204C28.1408 2.09636 28.5158 2.27242 28.7941 2.43145C29.0723 2.59047 30.2698 2.32922 30.6327 2.24971L31.0138 2.32922L31.3041 2.39169C31.673 2.32354 32.0541 2.25539 32.1509 2.24403C32.2476 2.23267 32.5924 2.34058 32.6892 2.30082C32.7859 2.26107 33.046 2.23835 33.052 2.34626C33.0581 2.45416 33.4875 2.32354 33.5541 2.3065L33.5964 2.32354L33.8686 2.44281C34.1226 2.61319 34.4311 2.829 34.552 2.93123C34.673 3.03346 35.0782 3.19248 35.0419 3.22656C35.0056 3.26064 35.0238 3.46509 35.1508 3.62412L35.2536 3.77746L35.4774 4.0955C35.8826 4.35675 36.1488 4.62936 36.0641 4.69184C35.9794 4.75431 35.8464 4.99284 35.9734 5.06668L36.1004 5.09507H36.1306C36.2214 4.98149 36.4149 4.97013 36.5601 5.07236L36.6689 5.17458C36.7052 5.20866 36.681 5.28249 36.6871 5.33929C36.6992 5.45855 36.2637 5.28249 36.4754 5.51535C36.6145 5.66869 36.4754 5.72548 36.3907 5.82203L36.306 5.9129C36.2455 6.06057 36.2879 6.24231 36.4088 6.31614C36.5298 6.38997 36.5842 6.75913 36.6145 6.80456C36.6447 6.85 36.9774 7.27595 37.2677 7.65079L37.1951 8.07674C37.1588 8.3096 37.177 8.52541 37.4794 8.67876L37.5762 8.72419C37.6306 8.8321 37.7032 8.9968 37.7455 9.08767C37.7879 9.17854 38.2475 9.30349 38.4108 9.34324L38.435 9.4114C38.5076 9.61585 38.6225 9.62153 38.8221 9.51363C38.8463 9.50227 38.9249 9.53066 38.9612 9.5477L39.0278 9.58746C39.1064 9.65561 39.1245 9.72944 39.058 9.75784C38.9915 9.78624 38.8826 9.95094 38.9552 10.0645L38.9975 10.144L39.0459 10.2349C39.0882 10.3371 39.1366 10.4507 39.1487 10.4905C39.1608 10.5302 38.9975 10.8937 38.8161 11.2799L38.4108 11.5468L38.2052 11.6831C38.1084 11.9501 37.9875 12.2397 37.927 12.3306C37.8665 12.4215 37.4129 12.7452 37.2496 12.9383L37.05 12.9894C36.7052 13.0746 37.0802 13.1598 37.0076 13.2166C36.9169 13.2961 36.8201 13.3699 36.7173 13.4381L36.4633 13.6085C36.179 13.7959 35.8766 14.0344 35.7859 14.1366C35.6952 14.2389 35.3262 14.4944 35.3625 14.5967C35.3988 14.6989 34.8605 14.8693 34.6669 14.9999L34.5036 15.1362L34.3222 15.2895C34.044 15.4997 33.9411 15.653 34.0924 15.6303C34.2436 15.6076 34.8847 15.335 35.3746 15.1305L35.8585 15.0113L36.1246 14.9431C36.1064 14.75 36.1064 14.5626 36.1246 14.5228H36.1548C36.2032 14.5001 36.2939 14.4944 36.3121 14.5172L36.3665 14.5796C36.4209 14.6932 36.548 14.6989 36.6447 14.5967L36.7234 14.5172C36.7657 14.4717 36.8141 14.3922 36.8504 14.3979L37.2556 14.4376C37.4552 14.2048 37.6911 13.9322 37.7697 13.8299C37.8483 13.7277 38.4653 13.6652 38.6891 13.546L38.9491 13.5119C39.064 13.4949 39.179 13.4324 39.2757 13.3699L39.2939 13.3586C39.2334 13.2734 39.2455 13.2052 39.3181 13.2052C39.3907 13.2052 39.6628 13.1711 39.7112 13.12C39.7596 13.0689 39.9773 12.8133 40.0439 12.6998L40.2979 12.7509C40.4189 12.7736 40.6547 12.5975 40.7757 12.4726L40.8785 12.3647C41.0237 12.2852 41.1628 12.217 41.1991 12.2056C41.2354 12.1943 41.3926 12.1886 41.5197 12.1659C41.6467 12.1432 42.064 11.9501 42.2031 11.8251L42.2999 11.6888C42.4027 11.5468 42.566 11.933 42.6083 11.6604C42.6507 11.3765 42.8261 11.6775 42.8805 11.6207L43.0015 11.5014C43.0983 11.5752 43.189 11.5525 43.2132 11.4503L43.2737 11.3765L43.316 11.3253C43.4249 11.3026 43.6668 11.2686 43.8603 11.2515C44.0539 11.2345 44.5136 10.9164 44.6406 10.7915L44.7736 10.6949L44.8039 10.6722C44.9309 10.7177 45.0458 10.7063 45.0579 10.6438C45.07 10.5813 45.1728 10.3655 45.2212 10.445C45.2696 10.5246 45.4631 10.6097 45.572 10.5416C45.6809 10.4734 45.8865 10.3485 45.9168 10.2235L46.1526 10.2406L46.3099 10.2519C46.4853 10.1724 46.703 10.0134 46.7877 9.89982L46.9813 9.85439C47.078 9.83167 47.1204 9.76352 47.2232 9.85439L47.2595 9.88846C47.3563 9.88846 47.5558 9.79191 47.701 9.67265L47.9308 9.62721L48.1425 9.58746C48.3421 9.44547 48.7171 9.25237 48.9893 9.1615C49.2615 9.07063 50.2171 8.88321 50.4893 8.83778L50.6889 8.67308L50.9005 8.49702C51.2393 8.44022 51.5598 8.49134 51.6142 8.60493C51.6687 8.71851 51.838 9.0252 51.8622 9.01952C51.8864 9.01384 51.9227 8.94569 51.9046 8.87753C51.8864 8.80938 51.8078 8.54813 51.7896 8.4459L52.1525 8.2528C52.4489 8.09378 52.9328 8.18465 53.084 7.84957C53.09 7.83821 53.211 7.82685 53.2412 7.84957C53.5074 8.03131 53.4711 8.15625 53.1142 8.32096H53.1021C53.1021 8.32096 53.3924 8.32664 53.7432 8.2812L53.9005 8.23009C54.0638 8.17897 54.2574 8.1449 54.4267 8.16193L54.711 8.19601C54.7654 8.02563 54.8501 7.93476 54.8924 7.99155C54.9348 8.04835 55.1283 8.21873 55.1525 8.16193C55.1767 8.10514 55.2069 7.79845 55.213 7.55992L55.6908 7.22484L55.7694 7.16804C55.8541 7.09989 55.9569 7.14533 55.9993 7.26459C56.0416 7.38386 56.4347 7.59968 56.6585 7.49177C56.8823 7.38386 57.6081 7.29867 57.6081 7.21916C57.6081 7.13965 57.5537 6.90679 57.4811 7.0147C57.4085 7.12261 57.0275 7.09989 56.9972 7.04878V6.99766C57.0154 6.91247 56.9065 6.69098 57.2271 6.87272L57.2815 6.90111C57.5416 6.73641 57.7835 6.69098 57.8137 6.79888V6.87272L57.8319 6.95223C57.8319 7.05446 57.8863 7.13965 57.9589 7.13965C58.0315 7.13965 58.2795 7.03174 58.3339 6.89543C58.3883 6.75913 58.6424 6.38997 58.7391 6.48652C58.8359 6.58307 59.2169 6.75345 59.3561 6.64554L59.4891 6.58875L59.6645 6.51492C59.8762 6.4638 60.1786 6.40133 60.3359 6.37861L60.4871 6.40701C60.6988 6.44676 60.9044 6.40133 61.0738 6.28774C61.1403 6.24231 61.2008 6.19687 61.2673 6.15144L61.7451 5.86179L61.8359 5.83339C61.9387 5.79931 62.2592 5.71412 62.5556 5.64029C62.852 5.56646 63.6745 5.37904 63.8983 5.35064C64.1221 5.32225 64.8237 5.30521 64.9326 5.32225C65.0415 5.33929 65.0656 5.61758 64.8842 5.68005C64.7027 5.74252 64.5999 6.15144 64.6907 6.09464C64.7814 6.03785 65.108 6.03217 65.2713 6.17415L65.4406 6.27638L65.5918 6.36725C65.8096 6.41837 66.1422 6.56603 66.3297 6.69666L66.0273 6.86136L65.9668 6.89543C65.9971 7.11693 66.0757 7.23052 66.1543 7.13965C66.233 7.04878 66.4144 6.92383 66.3842 7.08285C66.3539 7.24188 66.1543 7.49177 66.3055 7.50881C66.4567 7.52584 66.9346 7.46337 67.11 7.43497C67.2854 7.40658 67.4063 7.0431 67.485 7.09989C67.5636 7.15669 67.7995 7.18508 67.9265 7.08285C68.0535 6.98062 68.5132 6.81024 68.622 6.80456C68.7309 6.79888 68.9486 6.60011 69.0696 6.6285L69.1845 6.64554L69.2571 6.6569C69.3418 6.6569 69.3841 6.61715 69.3599 6.57171C69.3357 6.52627 69.4748 6.41837 69.6684 6.3275C69.8619 6.23663 70.4849 6.01513 70.5938 5.9697C70.7027 5.92426 70.7934 5.64597 70.8176 5.62325C70.8418 5.60054 70.9627 5.5835 71.0353 5.63461L71.0958 5.68573L71.126 5.71412C71.1502 5.75956 71.2954 5.62893 71.4466 5.42448L71.5917 5.24842C71.628 5.20866 71.7188 5.16323 71.7792 5.17458L72.0877 5.21434C72.2994 5.061 72.5655 4.87358 72.6804 4.79407H72.8195L73.0131 4.80543C73.1885 4.74295 73.376 4.66912 73.4304 4.63504C73.4849 4.60097 73.503 4.41355 73.6361 4.33404L73.7752 4.30564C73.9506 4.26588 74.1441 4.27156 74.3316 4.27156C74.4586 4.27156 74.2288 3.93648 74.5735 4.1239C74.5977 4.14094 74.7671 4.00463 74.8639 3.93648C74.9304 3.89105 74.9848 3.83425 75.0635 3.80018C75.2147 3.73202 75.378 3.67523 75.5292 3.6014L75.6622 3.53325C75.8135 3.53325 76.0614 3.44806 76.2066 3.33447L76.3397 3.23224L76.4727 3.13001C76.5876 3.04482 76.7509 2.97667 76.8417 2.98235C76.9324 2.98803 77.0715 2.92555 76.9929 2.829L77.1501 2.72677C77.3376 2.61319 77.4163 2.71542 77.5554 2.77221L77.6219 2.80061C77.761 2.72677 77.9969 2.57911 78.1421 2.47688L78.3477 2.63023C78.4203 2.68702 78.4989 2.61319 78.4021 2.44281L78.3598 2.37465C78.39 2.34058 78.6078 2.23267 78.8436 2.13612L79.0856 2.10772C79.134 2.10772 79.14 1.90894 79.3699 1.89759H79.4666C79.5755 1.89759 79.8779 1.86919 80.144 1.83511C80.4102 1.80104 80.7972 1.24446 80.9908 1.21038C81.1843 1.17631 81.8557 1.04568 82.0553 0.937772C82.2549 0.829864 82.5331 0.710597 82.5815 0.750353C82.6299 0.790109 82.8416 0.875299 82.89 0.818506L82.8779 0.784429L82.8476 0.716277C82.7871 0.648124 82.8174 0.551575 82.9142 0.500461C83.0109 0.449346 83.3436 0.409591 83.6218 0.381194L83.8637 0.347118L84.0089 0.3244C84.142 0.256248 84.6198 0.41527 85.0734 0.670842L85.4847 0.915055L85.5512 0.954811C85.6117 1.0116 85.8052 1.10247 85.9685 1.15359C86.1318 1.2047 86.6278 1.07976 86.8879 1.00025L87.1359 1.10247C87.4141 1.21606 87.6802 1.33533 88.0189 1.28989C88.1036 1.27853 88.8294 1.64769 88.9382 1.69881C89.0229 1.73856 89.1681 1.69881 89.2588 1.73288C89.3737 1.77264 89.4584 1.89191 89.5733 1.90327C89.8455 1.93734 89.7487 2.08501 89.7427 2.18723V2.25539C89.658 2.32922 89.5552 2.47688 89.5128 2.58479C89.4705 2.6927 89.906 3.03346 89.8273 3.0789C89.7487 3.12433 89.6277 3.35151 89.6882 3.50485C89.7487 3.65819 90.2326 3.92512 90.1721 4.02167C90.1116 4.11822 89.9846 4.40219 90.039 4.43627C90.0935 4.47034 90.1781 4.61233 90.154 4.6748C90.1298 4.73727 90.0632 4.92469 90.0269 4.95309C89.9906 4.98149 89.8152 4.99852 89.7487 5.07236L89.7729 5.10075L89.8939 5.24842C90.0511 5.39608 90.2084 5.50399 90.2326 5.48695C90.2568 5.46991 90.408 5.43016 90.4019 5.50967C90.3959 5.58918 90.3475 5.7766 90.3233 5.79364C90.2991 5.81067 90.281 5.9413 90.3233 6.04921C90.3656 6.15712 90.4564 6.65122 90.5229 6.89543L90.7043 7.10557L90.8072 7.21916C90.7588 7.42362 90.91 7.65647 91.1398 7.74166L91.3394 7.82117L91.3878 7.83821C91.5572 7.97451 91.6297 8.12218 91.5451 8.16761C91.4604 8.21305 91.418 8.36639 91.4301 8.48566C91.4422 8.60493 91.1459 9.06495 91.0551 9.30917H90.5531C90.4261 9.43979 90.4745 9.61585 90.656 9.7124L90.7951 9.77488C90.8616 9.80327 90.8616 9.79759 90.9342 9.63289C90.9644 9.57042 91.0309 9.46819 91.0914 9.46251C91.4422 9.43979 91.666 8.9968 92.1015 9.27509L92.8575 8.87753L92.8878 8.84914C92.9241 8.82074 93.0692 8.77531 93.2144 8.74691C93.3595 8.71851 93.7103 8.53109 93.7648 8.47998C93.8192 8.42886 94.3454 8.41183 94.5269 8.2812L94.6841 8.16761L95.3797 8.04267L95.5006 8.17897C95.6277 8.09946 95.8696 7.94044 96.045 7.82117C96.2204 7.7019 96.7526 7.25891 96.8313 7.06014L97.1458 7.25323C97.3333 7.3725 97.6357 7.19076 97.8171 7.38386L97.8413 7.41226C97.9683 7.37818 98.2103 7.24188 98.3796 7.10557L98.6276 7.02606C99.3715 6.79321 99.5107 6.70234 99.8433 6.84432L100.146 6.96927C100.49 6.95223 100.738 6.88408 100.696 6.81024C100.654 6.73641 100.744 6.4922 100.968 6.36725C101.192 6.24231 102.039 5.9697 102.117 5.94698L102.208 5.99809C102.323 6.06625 102.474 6.07192 102.486 5.91858C102.499 5.75388 102.674 5.75956 102.771 5.79364L103.176 5.9413C103.605 5.86747 103.95 5.71412 103.95 5.60054C103.95 5.48695 104.537 5.35632 104.906 5.29953L105.184 5.17458C105.353 5.10075 105.565 5.07236 105.765 5.03828L105.928 5.00988C106.067 4.89062 106.218 4.85086 106.267 4.91333C106.315 4.97581 106.496 5.13483 106.551 5.11211L106.581 5.08939L106.738 4.97581C106.902 4.84518 107.18 4.8111 107.355 4.90765L107.47 4.68616C107.488 4.65208 107.712 4.6748 107.839 4.68616L107.912 4.69752C107.984 4.69752 108.172 4.65208 108.329 4.58393C108.486 4.51578 109.121 4.53282 109.43 4.58393L109.648 4.37379C109.726 4.29996 109.781 4.27724 109.89 4.36243L109.938 4.39651C110.059 4.37379 110.258 4.317 110.379 4.27156C110.5 4.22613 111.081 4.20909 111.311 4.12958L111.371 4.17501L111.637 4.36811C111.819 4.23181 112.133 4.06143 112.333 3.99327L112.521 3.94216C112.521 3.94216 112.599 3.96488 112.635 3.98192C113.01 4.1523 113.035 4.17501 113.192 4.04439L113.385 3.88537C113.573 3.96488 113.797 4.05007 113.881 4.07847C113.966 4.10686 114.172 3.87401 114.238 3.80018H114.299C114.51 3.80586 114.414 3.94784 114.438 4.03871L114.45 4.07847C114.468 4.11254 114.752 4.02167 115.085 3.87969L115.393 3.76042C115.738 3.62412 115.605 3.68091 115.787 3.97624L115.956 4.25453C115.744 4.24885 115.69 4.32268 115.823 4.42491L115.914 4.40787C116.071 4.37947 116.295 4.18637 116.325 4.20909C116.494 4.317 116.694 4.35108 116.833 4.26021C117.002 4.14662 117.039 4.25453 117.135 4.29428L117.178 4.31132C117.268 4.26021 117.244 4.16366 117.123 4.10686L117.329 4.06143C117.377 4.05007 117.51 4.1239 117.535 4.18069C117.577 4.27156 117.583 4.3454 117.704 4.23181L117.728 4.20909C117.716 4.1239 117.952 4.10686 118.26 4.18069C118.569 4.25453 119.107 4.72591 119.01 4.78271C118.914 4.8395 118.823 5.07803 118.926 5.18594C119.028 5.29385 119.41 5.53238 119.537 5.49831C119.664 5.46423 119.996 5.32793 119.996 5.27113C119.996 5.21434 120.196 5.08939 120.444 5.12915L120.178 5.37904L120.045 5.50399C120.232 5.66301 120.444 5.83339 120.522 5.87883C120.601 5.92426 120.317 6.17983 120.256 6.1344C120.196 6.08896 120.032 5.99241 120.02 6.01513C120.008 6.03785 119.996 6.14576 119.996 6.25934C119.996 6.37293 120.565 6.52627 120.789 6.63986L120.522 6.87272L120.456 6.92951C120.589 7.11693 120.776 7.31003 120.873 7.36682C120.97 7.42362 121.03 7.66215 121.115 7.71894C121.2 7.77574 120.976 8.01427 120.934 8.06538C120.891 8.1165 120.903 8.2812 120.958 8.2528L121 8.22441L121.061 8.18465C121.145 8.1165 121.272 8.12218 121.339 8.19601C121.405 8.26984 121.478 8.52541 121.381 8.62764C121.284 8.72987 120.813 8.81506 120.649 8.81506C120.486 8.81506 119.996 8.88889 119.996 8.97408C119.996 9.05927 119.918 9.29213 119.827 9.26373L119.869 9.08199C119.887 8.87753 119.827 8.71283 119.73 8.71283C119.633 8.71283 119.385 8.72987 119.391 8.74691C119.397 8.76395 119.446 8.89457 119.488 8.98544C119.53 9.07631 119.035 9.26941 119.113 9.20126V9.1615C119.125 9.04792 119.168 8.86618 119.095 8.83778C118.889 8.74123 118.895 8.91161 118.811 9.00248C118.696 9.12175 118.49 9.19558 118.309 9.26941C118.236 9.29781 118.127 9.26941 118.037 9.25237L117.94 9.24101C117.843 9.2183 117.522 9.30349 117.232 9.42844L116.99 9.56474C116.887 9.62153 116.573 9.67265 116.857 9.86007C116.815 9.89982 116.585 9.97933 116.349 10.0418C116.113 10.1043 115.672 10.5246 115.623 10.5416C115.575 10.5586 115.291 10.5075 115.031 10.4564L114.928 10.6779L114.825 10.8994C114.613 10.8596 114.42 10.8767 114.383 10.9335C114.347 10.9903 114.196 11.1606 114.141 11.1947H114.099C113.597 11.1038 113.222 11.2969 113.029 11.5923L112.908 11.7797C112.708 11.8706 112.521 11.9046 112.49 11.8592C112.46 11.8138 112.109 11.7683 111.764 11.8592L111.462 11.9501L111.402 11.9671C111.359 12.0182 111.214 12.1829 111.081 12.3363C110.948 12.4896 110.809 12.8758 110.833 12.7622C110.857 12.6486 110.7 12.3874 110.573 12.4328C110.446 12.4783 110.228 12.8645 110.174 12.7452L110.095 12.7111C109.968 12.6543 109.853 12.6884 109.829 12.8361C109.823 12.8758 109.684 12.9383 109.599 12.9383H109.103C108.789 13.2166 108.244 13.563 107.906 13.705L107.549 13.7561C107.549 13.7561 107.525 13.8583 107.549 13.8697C107.748 13.9719 107.676 14.0514 107.531 14.1423C107.464 14.1821 107.422 14.2502 107.355 14.2673L107.271 14.29C107.162 14.2786 107.101 14.1821 107.125 14.0742H107.392C107.355 13.9379 107.246 13.8583 107.15 13.8924C107.053 13.9265 106.781 14.0912 106.72 14.1366C106.66 14.1821 106.412 14.0855 106.357 14.1082C106.303 14.131 105.819 14.3695 105.42 14.5796L105.063 14.7727L104.942 14.8352C104.809 14.8068 104.658 14.8125 104.603 14.8466C104.549 14.8806 104.531 14.9715 104.676 14.9772C104.821 14.9829 105.22 15.0056 105.263 15.0681C105.305 15.1305 105.371 15.3747 105.275 15.4031L105.202 15.4372L105.136 15.4656C105.063 15.5167 104.984 15.5167 104.954 15.4713C104.924 15.4259 104.712 15.4202 104.561 15.5906L104.446 15.7439C104.416 15.7837 104.47 15.8518 104.488 15.9086L104.5 15.954C104.519 16.0051 104.464 16.0449 104.367 16.0506L104.313 16.0222C104.186 15.954 104.035 15.9086 103.938 15.9313L103.884 15.9427C103.823 15.9427 103.672 15.92 103.545 15.8972C103.418 15.8745 103.242 15.5849 103.007 15.5508L102.831 15.6019L102.48 15.7041C102.251 15.9768 101.99 16.0847 101.906 15.9484H101.845C101.736 15.9484 101.585 16.0222 101.531 16.096L101.428 16.2266C101.367 16.3913 101.343 16.5958 101.374 16.681H101.567C101.609 16.7719 101.615 16.8968 101.585 16.9593C101.555 17.0218 101.386 17.1694 101.307 17.1013C101.228 17.0331 101.095 16.7889 101.017 16.6924H100.769C100.751 16.6242 100.732 16.5504 100.732 16.5277C100.732 16.5049 100.648 16.4538 100.527 16.4652V16.4822L100.497 16.823C100.128 16.8457 99.8856 16.9479 99.9582 17.0445C100.031 17.141 100.46 17.1921 100.49 17.2887C100.521 17.3852 100.515 17.6806 100.4 17.709C100.285 17.7374 99.9945 17.3 99.8191 17.1183L99.4925 17.3852L99.4199 17.442C99.2808 17.4818 99.2203 17.5272 99.2808 17.5443C99.3413 17.5613 99.3655 17.6692 99.2143 17.743C99.0631 17.8169 99.2566 18.1974 99.1357 18.2826L99.0631 18.2655L98.8998 18.2315C98.6941 18.1236 98.5429 18.0895 98.5671 18.1576C98.5913 18.2258 98.5913 18.4132 98.5127 18.4246C98.4341 18.4359 98.1861 18.5438 98.2647 18.6233C98.3433 18.7029 98.4099 18.9527 98.2284 18.9698L98.1437 18.9243L98.0409 18.8676C98.0288 18.7312 98.0046 18.5722 97.9804 18.5154C97.9562 18.4586 98.0167 18.1974 98.174 18.0611C98.3312 17.9248 98.2345 17.4931 98.1256 17.5499C98.0167 17.6067 97.7567 17.8339 97.7869 17.9305C97.8171 18.027 97.799 18.2655 97.6841 18.2201C97.5692 18.1747 96.9583 18.5268 96.8252 18.4984L96.7103 18.4586L96.5954 18.4246C96.4563 18.4018 96.2809 18.4132 96.2022 18.4473C96.1236 18.4814 96.0692 18.7767 96.051 18.8959H96.0268C95.6821 18.9016 95.797 19.1061 95.7426 19.2424L95.7123 19.3162C95.5914 19.3901 95.4704 19.4014 95.4462 19.3446C95.422 19.2878 95.295 19.2083 95.2164 19.2821C95.1377 19.356 94.8535 19.5434 94.7325 19.532C94.6115 19.5207 94.6781 19.7819 94.7144 19.8103C94.7506 19.8387 94.7869 19.9694 94.8051 20.0432C94.8232 20.117 95.1982 20.2192 95.2829 20.2647C95.3676 20.3101 95.422 20.5316 95.2103 20.6622L94.9986 20.418L94.9261 20.3328C94.7567 20.2817 94.5934 20.242 94.5631 20.2476C94.5329 20.2533 94.291 20.2988 94.0853 20.3555L94.1216 20.577L94.1458 20.719C94.0309 20.6509 93.8132 20.5714 93.6559 20.543L93.6378 20.719C93.6317 20.7929 93.5894 20.8667 93.5349 20.9235L93.5228 20.9348C93.414 20.9008 93.3172 20.8213 93.3051 20.7588C93.293 20.6963 93.3898 20.4691 93.4684 20.3783L93.5591 20.3044C93.5591 20.3044 93.6801 20.3101 93.7103 20.2931C93.7587 20.2533 93.8071 20.1908 93.8011 20.1454C93.795 20.1057 93.7043 20.0545 93.6499 20.0489L93.4987 20.0375C93.2991 20.0375 93.166 20.1113 93.2023 20.1908C93.2386 20.2704 92.9725 20.3783 92.8152 20.3669L92.67 20.3499C92.67 20.3499 92.6761 20.3101 92.67 20.2931L92.5551 20.0545C92.2708 19.9807 91.9684 19.941 91.8777 19.9637L91.8656 20.0034C91.8475 20.0489 91.8838 20.1284 91.9321 20.1624L92.295 20.418C92.416 20.6509 92.5733 20.8724 92.6398 20.9178H92.7003C92.7547 20.9064 92.8152 20.8497 92.8333 20.8042L92.8696 20.7247C92.8938 20.5657 93.1116 20.7645 93.3475 21.1677L93.6982 21.3835C93.8132 21.4573 93.9402 21.4573 93.9886 21.3097L94.0007 21.2642C94.049 21.2188 94.1519 21.162 94.2305 21.1336C94.3091 21.1052 94.5571 21.1109 94.5873 21.0484C94.6176 20.986 94.8172 20.9064 94.9563 21.0314C95.0954 21.1563 95.3494 21.4744 95.2285 21.4573C95.1075 21.4403 94.793 21.7243 94.5873 21.7868L94.4301 21.889L94.4119 21.9003C94.3394 21.8776 94.3091 21.8151 94.3333 21.7584C94.3575 21.7016 94.3757 21.5596 94.297 21.5596C94.2184 21.5596 94.0853 21.7129 94.1095 21.9003L94.049 22.0423L93.9886 22.1786C94.0611 22.2013 94.0551 22.2865 93.9825 22.366C93.9099 22.4456 93.5833 22.5364 93.3958 22.4228L93.2507 22.4342C92.9362 22.4626 93.0571 22.2297 92.912 22.1729C92.7003 22.0934 92.6942 22.0878 92.7729 22.031C92.9241 21.9231 93.0148 21.7527 93.3293 21.9003L93.4563 21.9628C93.5531 21.7527 93.4563 21.5766 93.2325 21.5709C93.0087 21.5653 92.4765 21.7754 92.2648 21.9003L92.1983 22.048L92.1438 22.1673C92.2346 22.332 92.3616 22.5251 92.4281 22.5989C92.4946 22.6727 92.2164 22.8658 91.9442 22.792L91.6902 22.7238H91.6842C91.6176 22.4512 91.5813 22.2184 91.5934 22.2127L91.5027 22.3263C91.3576 22.508 91.4059 22.508 91.6237 22.5705C91.7144 22.5989 91.8172 22.6954 91.9201 22.65L91.9805 22.6273C91.9926 22.5307 91.9624 22.3376 91.914 22.2013C91.8656 22.065 91.9261 21.7243 91.8172 21.7697L91.7386 21.7811L91.6176 21.7981C91.5814 22.031 91.533 22.349 91.5088 22.5023C91.4846 22.6557 91.5088 22.9113 91.7144 22.9794L91.8717 23.0419C92.0773 23.1214 92.0652 23.1441 91.8112 23.2918L91.7749 23.3145C91.7567 23.3599 91.7265 23.4565 91.7023 23.5246C91.6781 23.5928 91.5632 23.7348 91.4906 23.7291C91.418 23.7234 91.1156 23.8086 90.9886 23.9279L90.783 23.9165L90.6257 23.9052C90.5652 23.9903 90.4382 24.1323 90.3354 24.2118C90.2326 24.2914 89.8334 24.3879 89.7064 24.3765C89.5794 24.3652 89.4342 24.1437 89.4947 24.1096C89.5552 24.0755 89.6943 23.9165 89.5794 23.8597L89.5007 23.8086C89.3858 23.7405 89.3132 23.6553 89.4463 23.553L89.5552 23.4735C89.7124 23.4508 89.9665 23.4678 90.1116 23.5019C90.2568 23.536 90.5531 23.1498 90.5894 23.1157C90.6257 23.0816 90.9342 22.9794 91.1096 22.9113L90.9221 22.7693C90.8676 22.7295 90.8072 22.6898 90.7346 22.6614L90.6741 22.633C90.5894 22.6159 90.5652 22.5705 90.6257 22.5251C90.6862 22.4796 90.8374 22.3036 90.783 22.2809C90.7285 22.2581 90.4987 22.2809 90.4019 22.3717C90.3052 22.4626 90.0935 23.0021 89.9483 23.0249C89.8031 23.0476 89.3919 23.0816 89.4342 23.0249C89.4765 22.9681 89.537 22.7579 89.5189 22.6841L89.4705 22.6671C89.4161 22.65 89.289 22.6671 89.2649 22.7068L89.1681 22.8431C89.0895 23.0021 88.8838 23.093 88.7024 23.0532H88.5391C88.5028 23.0419 88.4241 23.1555 88.4181 23.2236V23.2804C88.4665 23.3486 88.4181 23.3883 88.3092 23.3713L88.2366 23.3315L88.1278 23.2747C88.025 23.1896 88.0008 23.093 88.0733 23.0589C88.1459 23.0249 88.2608 22.809 88.285 22.6671L88.2427 22.5535L88.1943 22.4342C88.2548 22.3376 88.3092 22.2411 88.3032 22.2184C88.2971 22.1957 88.4241 22.0764 88.5632 21.9571C88.7024 21.8379 89.3677 21.4971 89.5733 21.3722C89.779 21.2472 90.3414 20.9462 90.3777 20.9746V21.003L90.3414 21.1279C90.2991 21.2586 90.3112 21.321 90.3656 21.2642C90.4201 21.2075 90.6862 21.1279 90.7285 21.1109C90.7709 21.0939 91.0189 21.0541 91.2003 21.0825V20.6452C91.3818 20.4407 91.5632 20.2476 91.6116 20.2136C91.66 20.1795 91.6418 20.1341 91.5995 20.1454C91.5572 20.1568 91.3213 20.1624 91.2003 20.1795C91.0793 20.1965 90.9281 20.4919 90.8132 20.5373L90.789 20.5146L90.4745 20.2704L90.5047 20.2476ZM89.4886 22.3376C89.4161 22.3604 89.1923 22.3831 88.9987 22.3888L88.8657 22.3774L88.6419 22.3604C88.5451 22.491 88.4967 22.6387 88.533 22.6954C88.5693 22.7522 88.7689 22.8204 88.8778 22.7352C88.9866 22.65 89.1862 22.0594 89.2225 22.207C89.2588 22.3547 89.5612 22.3093 89.4886 22.332V22.3376ZM35.5984 23.3372C34.927 23.678 34.927 23.7689 35.556 24.0244C35.5681 23.8143 35.5802 23.6212 35.5984 23.3372Z" fill="#EE6529" fill-opacity="0.39"/>
<path id="Vector_2" d="M79.7699 34.3941C79.6852 34.3884 79.5038 34.3316 79.3647 34.2634C79.2256 34.1953 78.7719 34.0476 78.6449 34.0703C78.5179 34.0931 78.2639 34.3032 78.2034 34.3259C78.1429 34.3486 77.5744 34.4906 77.5381 34.6042L77.653 34.6212C77.6953 34.6269 77.7679 34.4906 77.8405 34.4281L77.9312 34.3486C78.0462 34.2691 78.0703 34.1555 77.9857 34.1044C77.901 34.0533 77.5744 34.235 77.5079 34.2748C77.4413 34.3145 77.6591 34.4792 77.7377 34.5701C77.8163 34.661 77.8828 34.7973 77.526 34.7519C77.1692 34.7064 76.5341 34.2123 76.5038 34.1669C76.4736 34.1214 76.268 34.0306 76.147 34.0533L76.2317 33.9056L76.3163 33.7523C76.4071 33.5535 76.3829 33.3888 76.274 33.3831H76.1772L75.8869 33.4115C75.772 33.2355 75.5361 32.73 75.3607 32.2813L75.1914 31.8781L75.1611 31.8099C75.1188 31.7645 75.1853 31.6566 75.3184 31.5657C75.4514 31.4749 75.7357 31.2022 75.6692 31.1511C75.6026 31.1 75.9051 30.941 76.0321 30.8899L76.1409 30.8444H76.1591C76.1651 30.8161 76.1954 30.7081 76.2256 30.6002C76.2559 30.4923 76.5704 30.1743 76.655 30.0834C76.7397 29.9925 76.9091 29.6972 76.8788 29.6518V29.4757C77.0482 29.4757 77.3929 29.4473 77.6409 29.4189L77.6288 29.2713V29.1974C77.4413 29.1066 77.3627 29.0043 77.4534 28.9703C77.5441 28.9362 77.8284 28.868 77.8707 28.8453C77.9131 28.8226 77.907 28.6806 77.9917 28.6352L78.0522 28.6465L78.1792 28.6693C78.3546 28.6806 78.4272 28.5954 78.3365 28.4762C78.2457 28.3569 78.0824 28.0729 78.1792 28.1184C78.276 28.1638 78.6449 28.1751 78.7175 28.0616L78.784 27.9593C78.8264 27.8969 78.8445 27.8003 78.9111 27.7719L79.026 27.7208C79.159 27.6754 79.2498 27.6015 79.2316 27.5618C79.2135 27.522 79.2195 27.3687 79.3828 27.4482C79.5461 27.5277 79.7941 27.7492 79.655 27.806L79.6248 27.8855L79.6006 27.9536C79.4917 28.0218 79.2558 28.1922 79.0804 28.3455L79.1227 28.5045C79.1348 28.5557 79.1832 28.6295 79.2316 28.6352L79.2921 28.6465C79.3768 28.6125 79.6066 28.5329 79.8002 28.4648L79.776 28.2603L79.7397 27.9707C79.4675 28.0161 79.2135 28.0445 79.1772 28.0332C79.1409 28.0218 79.5582 28.0672 79.7457 28.0729C79.9332 28.0786 80.151 28.3058 80.2114 28.3285C80.2719 28.3512 80.3929 28.5613 80.3445 28.7772L79.9937 28.7885H79.9695C79.9514 28.9078 79.8606 29.0611 79.7639 29.1293C79.6671 29.1974 79.1893 29.2429 79.0683 29.2315C78.9473 29.2201 78.6933 29.3678 78.6812 29.3565C78.6691 29.3451 78.6389 29.2826 78.6268 29.2315C78.6147 29.1804 78.4211 28.9987 78.2034 29.0043L78.155 29.0668C78.0341 29.2315 78.2578 29.2372 78.397 29.2769L78.4393 29.2883C78.4514 29.3735 78.3667 29.4644 78.2578 29.4928L78.1792 29.47L77.7982 29.3735C77.7135 29.578 77.7014 29.754 77.7619 29.754C77.8224 29.754 78.022 29.7313 78.0885 29.7143C78.155 29.6972 78.524 29.6404 78.7598 29.612L79.0562 29.879C79.2195 30.0266 79.3707 30.1516 79.2195 30.356L79.1651 30.4299C79.1348 30.5207 79.2921 30.5094 79.5159 30.4015L79.5885 30.2652C79.6308 30.1856 79.4977 30.055 79.4433 29.9471L79.3889 29.8392C79.3284 29.7199 79.3768 29.6518 79.4977 29.6802C79.6187 29.7086 79.8667 29.8278 79.8425 29.8903C79.8183 29.9528 79.8364 30.0664 79.9272 30.0437C80.0179 30.0209 80.1207 29.7938 80.157 29.6177C80.1933 29.4416 80.0844 29.0441 80.2598 29.0895C80.4352 29.135 80.9675 29.2372 80.8767 29.1634C80.786 29.0895 80.8102 28.8737 81.0401 28.7715L81.1489 28.6295L81.2578 28.4932C81.403 28.3626 81.3909 28.2603 81.2215 28.2603C81.0522 28.2603 80.4897 28.2263 80.3626 28.1808C80.2356 28.1354 79.9997 27.9139 80.0542 27.9025C80.1086 27.8912 80.1993 27.7378 80.1389 27.6072C80.0784 27.4766 79.6489 27.3176 79.7336 27.2835C79.8183 27.2494 80.0602 27.1983 80.0784 27.2437L80.1147 27.2835C80.151 27.3232 80.2114 27.38 80.2659 27.3857C80.3203 27.3857 80.4292 27.3346 80.4292 27.3005L80.4473 27.1358C80.4473 26.9654 80.4655 26.8007 80.5018 26.7667H80.5199C80.5199 26.7667 80.5562 26.7951 80.5804 26.8064C80.5985 26.8235 80.6348 26.8519 80.6348 26.8462C80.7497 26.7837 80.8707 26.7212 80.9856 26.6531L81.155 26.5508C81.0582 26.4429 80.9796 26.318 80.9856 26.2726H81.0098C81.0582 26.2498 81.1368 26.2385 81.161 26.2612C81.2094 26.301 81.2336 26.3577 81.2578 26.4089L81.3243 26.5452C81.4513 26.4997 81.6267 26.3805 81.7175 26.2782C81.8082 26.176 81.9957 25.858 81.9594 25.7671L81.9413 25.6762C81.9413 25.6762 82.1167 25.6137 82.1408 25.6308L82.407 25.8409C82.4977 25.6592 82.5945 25.4377 82.6308 25.3468C82.667 25.2559 82.8727 25.0231 83.0118 25.0515C83.1509 25.0799 83.5259 25.0799 83.544 25.0061C83.5622 24.9322 83.6408 24.7448 83.6771 24.8073C83.7134 24.8698 83.913 25.0004 84.034 24.9663L84.0763 24.9095L84.2698 24.6483C84.5783 24.7164 84.8384 24.8073 84.8565 24.847C84.8747 24.8868 85.0501 24.9947 85.1771 24.9436C85.3041 24.8925 85.6549 24.6767 85.7033 24.5971L85.6851 24.5858L85.6126 24.5403C85.5097 24.5176 85.3827 24.529 85.3283 24.5631C85.2739 24.5971 85.0319 24.6255 84.9412 24.4552L84.8021 24.387L84.663 24.3245C84.3303 24.3359 84.2396 24.3188 84.4634 24.2848C84.6872 24.2507 84.7839 23.9043 84.8384 23.9099C84.8928 23.9156 85.0077 23.9327 84.9835 23.9554C84.9593 23.9781 84.9654 24.0803 85.044 24.1144C85.1226 24.1485 85.3827 24.3245 85.4614 24.404L85.5521 24.2905L85.5944 24.2393C85.6065 24.1712 85.5944 24.0803 85.5642 24.0349C85.5339 23.9894 85.6912 23.8191 85.7577 23.7736C85.8243 23.7282 85.7577 23.3874 85.8364 23.3818C85.915 23.3761 86.1992 23.4272 86.1569 23.5124C86.1146 23.5976 86.048 23.8134 86.0843 23.8247C86.1206 23.8361 86.2234 23.7452 86.3021 23.6487C86.3807 23.5521 86.792 23.2398 86.9855 23.2511L87.1609 23.3136C87.3 23.359 87.3908 23.4102 87.4936 23.3022C87.5178 23.2738 87.5178 23.2057 87.4936 23.183L87.4089 23.1205C87.3061 23.0751 87.167 23.0183 87.1004 22.9956C87.0339 22.9728 86.9674 22.8876 87.0944 22.8252L87.1609 22.7457L87.1851 22.7116C87.0944 22.615 87.1972 22.5355 87.4149 22.5242C87.6327 22.5128 88.0924 22.2004 88.3282 22.3027L88.0561 22.4958C88.0016 22.5355 87.8746 22.5639 87.8323 22.5412L87.7053 22.4787C87.5964 22.5242 87.427 22.6775 87.3363 22.8309L87.5722 23.0012L87.8565 23.2114C87.8141 23.4158 87.4875 23.4613 87.1246 23.3136L86.9432 23.7225C86.9432 23.7225 86.8404 23.7225 86.792 23.7396L86.4654 23.8191C86.6226 23.9838 86.8343 24.0633 86.9311 23.9894C87.0279 23.9156 87.3666 23.7509 87.4694 23.7907C87.5722 23.8304 87.6992 23.9611 87.5238 23.9951C87.3484 24.0292 87.1367 24.6312 87.0944 24.7562V24.8698C87.0944 24.9436 87.1609 25.0401 87.2395 25.0799L87.2879 25.1083C87.4029 25.0742 87.5601 24.9379 87.6448 24.8016L87.8141 24.7334C87.8867 24.705 87.9956 24.6255 87.9835 24.5915L87.9109 24.3132C87.8807 24.0122 87.8928 23.7623 87.9351 23.7566C87.9774 23.7509 88.1286 23.785 88.171 23.8418C88.2133 23.8986 88.3403 24.0803 88.3645 24.1144C88.3887 24.1485 88.552 24.2109 88.673 24.1769L88.7093 24.1201L88.8363 23.9156C88.9754 23.6089 89.1992 23.4669 89.3202 23.5919C89.4411 23.7168 89.4109 24.1144 89.3383 24.1201C89.2657 24.1258 88.7516 24.4949 88.8907 24.5006L88.9935 24.4892L89.1508 24.4722C89.3565 24.4324 89.4774 24.4722 89.423 24.5574C89.3685 24.6426 89.1811 24.8754 89.1629 24.8243C89.1448 24.7732 88.9815 24.705 88.8182 24.7448L88.679 24.8016C88.679 24.8016 88.7153 24.9379 88.7395 25.0061L88.7637 25.0742C88.8121 25.1821 88.7274 25.2389 88.5823 25.2048C88.4371 25.1708 88.0984 25.2616 88.0198 25.3355C87.9411 25.4093 87.5541 25.6081 87.3605 25.5854C87.167 25.5626 86.6287 25.6819 86.5682 25.6081C86.5077 25.5342 86.4049 25.2787 86.5259 25.2673L86.5984 25.2503C86.6892 25.2276 86.7799 25.1992 86.8464 25.1537L86.8646 25.1367C86.8101 25.0628 86.6771 24.9549 86.5742 24.8981C86.4714 24.8414 86.2476 24.671 86.2718 24.6085C86.296 24.546 86.29 24.3927 86.1569 24.4608C86.0238 24.529 85.8605 24.9379 85.915 25.0799L85.9271 25.2105V25.273C85.9271 25.3355 85.8545 25.4263 85.7759 25.4718L85.7577 25.4604L85.6791 25.415C85.6186 25.3468 85.5642 25.2503 85.5581 25.1935C85.5521 25.1367 85.419 25.0288 85.3888 25.0515C85.3585 25.0742 85.2376 25.1594 85.1952 25.1878C85.1529 25.2162 84.7114 25.2957 84.6872 25.3525L84.7053 25.4206L84.7174 25.4774C84.669 25.5513 84.6085 25.591 84.5783 25.574C84.5481 25.557 84.4029 25.5626 84.4029 25.6819C84.4029 25.8012 84.2698 26.1079 84.1126 26.1249C83.9553 26.1419 83.5138 25.8977 83.3747 25.8239L83.2295 25.9432L83.2114 25.9545C83.1267 25.9204 83.036 25.8523 83.0057 25.8012C82.9755 25.7501 82.8364 25.9261 82.9271 26.0795L83.157 26.1135C83.3807 26.1476 83.6045 26.193 83.8223 26.2385H83.8525C83.8525 26.2385 83.8102 26.3293 83.7436 26.3918C83.6771 26.4543 83.417 26.5224 83.1993 26.5111L83.1025 26.5565L83.0118 26.602C82.9695 26.7155 82.7941 26.8802 82.6187 26.9654L82.4191 26.9086L82.3828 26.8973C82.3223 26.8973 82.2739 26.9598 82.28 27.0506C82.286 27.1415 82.4251 27.4028 82.5703 27.3403C82.7154 27.2778 83.2477 27.1301 83.3203 27.1869C83.3928 27.2437 83.6045 27.346 83.6529 27.3062C83.7013 27.2664 83.8162 27.1074 83.7618 27.0506C83.7073 26.9938 83.5743 26.8007 83.6166 26.7837C83.659 26.7667 83.8586 26.761 84.0582 26.7667L84.2336 26.7326L84.5239 26.6758C84.415 27.1358 84.3122 27.681 84.294 27.8855C84.2759 28.09 84.5178 27.9253 84.6448 27.7719C84.7719 27.6186 85.4372 27.4766 85.5037 27.4652L85.5158 27.4425C85.54 27.3914 85.546 27.2892 85.5279 27.2835C85.4069 27.2551 85.2557 27.2721 85.1589 27.2267C85.0501 27.1756 84.9896 27.062 84.8928 26.9882C84.8807 26.9768 84.7416 27.0279 84.7416 27.0449V27.1642C84.6267 27.2097 84.4694 27.3062 84.3969 27.38L84.421 27.4198C84.4755 27.4993 84.6206 27.5391 84.4513 27.647L84.2638 27.7606C84.3001 27.6242 84.3848 27.3346 84.4634 27.1188C84.542 26.903 84.7718 26.5452 84.911 26.4429L85.0561 26.3634C85.0924 26.3464 85.1771 26.3748 85.2134 26.3577C85.2859 26.318 85.3283 26.2555 85.3948 26.2158L85.6609 26.0567C85.8242 25.8125 86.0722 25.6365 86.2053 25.6592C86.3384 25.6819 86.8343 25.8012 86.9976 25.875L86.7557 26.0227L86.6952 26.0624C86.7496 26.2214 86.7799 26.3521 86.7678 26.3521C86.7557 26.3521 86.5561 26.3293 86.3625 26.2953L86.3746 26.4997C86.3867 26.6588 86.5621 26.602 86.6771 26.6076H86.919C87.2456 26.3861 87.5662 26.1533 87.6387 26.0795C87.7113 26.0056 87.9714 26.0567 87.923 26.1476C87.8746 26.2385 87.6992 26.8235 87.7053 26.9314C87.7113 27.0393 87.8323 27.045 87.9109 26.9882C87.9895 26.9314 88.044 26.636 87.9593 26.494H87.9412L87.7113 26.5679C87.4815 26.6701 87.2093 26.7951 87.0944 26.8519C86.9795 26.9086 86.7134 27.1188 86.7617 27.1926C86.8101 27.2664 86.9855 27.4652 87.0097 27.4141C87.0339 27.363 87.1246 27.2608 87.167 27.2778C87.2093 27.2948 87.3424 27.3119 87.3545 27.2437C87.3666 27.1756 87.8504 26.7269 88.0258 26.6985C88.2012 26.6701 88.7274 26.4145 88.8423 26.3066C88.9573 26.1987 89.4472 26.1817 89.4593 26.1363C89.4714 26.0908 89.5923 25.9375 89.7073 25.8807C89.8222 25.8239 90.0701 25.6251 89.9976 25.5683C89.925 25.5115 89.7073 25.4036 89.6891 25.4604C89.671 25.5172 89.5681 25.6308 89.5198 25.7046C89.4714 25.7784 89.429 25.9829 89.3504 25.9772C89.2718 25.9715 89.0238 25.8239 88.9512 25.7785C88.8786 25.733 88.7274 25.5342 88.7879 25.449C88.8484 25.3639 89.2173 25.3809 89.429 25.3923L89.4835 25.2503C89.5319 25.1253 89.4411 24.9493 89.7556 24.9663H89.8282C89.9129 24.9436 90.0581 24.9379 90.1488 24.9549C90.2395 24.972 90.4814 25.1196 90.4028 25.2162H90.3363C90.1427 25.2389 90.0943 25.3411 90.179 25.4206C90.2395 25.4774 90.4331 25.4945 90.5419 25.4718L90.6992 25.432C90.7052 25.1764 90.6871 24.8981 90.6568 24.813L90.5903 24.7618L90.5298 24.7164C90.3363 24.6653 90.3363 24.6255 90.5359 24.6312C90.7355 24.6369 91.0742 24.9947 91.2375 25.0628L91.3221 25.1821C91.3463 25.2162 91.4855 25.2446 91.5338 25.2219C91.7334 25.131 91.9209 25.0231 92.1024 24.9152C92.1326 24.8981 92.1266 24.83 92.1024 24.7959C92.0842 24.7675 92.0177 24.7221 91.9875 24.7278L91.8302 24.7675C91.6064 24.8357 91.4734 24.8243 91.5217 24.7391C91.5701 24.6539 91.7455 24.5347 91.8121 24.6028C91.8786 24.671 92.1991 24.4324 92.3141 24.3529C92.429 24.2734 92.8947 24.1258 93.0882 24.1428L93.2636 24.1655H93.2999C93.3423 24.1769 93.5903 24.0746 93.8443 23.9383L94.0318 23.785L94.1406 23.6941C94.0983 23.5067 94.1648 23.3363 94.2798 23.3079C94.3947 23.2795 94.8543 23.2398 95.0418 23.2057C95.2293 23.1716 95.3201 22.7968 95.2596 22.7457L94.9632 22.9388C94.8543 22.7457 94.7515 22.6434 94.7394 22.7059C94.7273 22.7684 94.5882 22.9728 94.4794 22.9728C94.3705 22.9728 94.0802 23.024 94.1467 23.0864C94.2132 23.1489 93.9471 23.3704 93.7898 23.3874L93.7777 23.4272C93.7596 23.501 93.8987 23.6373 93.8624 23.6714C93.7052 23.8134 93.6084 23.6544 93.4814 23.5976L93.4209 23.5692C93.3241 23.5805 93.2939 23.5408 93.3483 23.484C93.4028 23.4272 93.4814 23.2625 93.4269 23.2171C93.3725 23.1716 93.2878 22.9217 93.3483 22.7513L93.6205 22.9274C93.6689 22.9558 93.8322 22.9388 93.8866 22.899C93.9713 22.8365 93.9955 22.7286 94.0741 22.6548L94.0923 22.6378C94.2011 22.6718 94.316 22.6264 94.3463 22.5298L94.3886 22.4447L94.5459 22.155C94.8422 22.3027 95.1144 22.4333 95.1507 22.4447C95.187 22.456 95.3624 22.28 95.4289 22.0414L95.1628 21.8597L95.0842 21.8029C95.06 21.6836 95.1689 21.6666 95.3201 21.7631L95.4713 21.8256L95.5197 21.8483C95.6164 21.8426 95.7072 21.871 95.7132 21.9165C95.7192 21.9619 95.8644 22.0471 95.9914 21.9278L96.0156 21.837L96.0942 21.5587C96.2334 21.4394 96.4329 21.3372 96.5358 21.3372C96.6386 21.3372 96.9168 21.269 96.9168 21.1782C96.9168 21.0873 96.9652 20.8431 97.0983 20.8885C97.2313 20.9339 97.7212 20.9737 97.8785 20.8771C98.0357 20.7806 97.8664 20.3092 97.9027 20.2638C97.939 20.2183 98.0055 20.1843 97.9813 20.2524C97.9571 20.3206 98.4591 20.2013 98.6103 20.0934C98.7615 19.9855 99.318 20.1786 99.4329 20.1502L99.451 20.1048L99.4934 19.9798C99.6264 19.9571 99.7958 19.8889 99.8744 19.8265C99.9531 19.764 100.038 19.605 99.8865 19.605C99.7353 19.605 99.4934 19.5595 99.6446 19.5311C99.7958 19.5027 100.001 19.2756 100.056 19.3551C100.11 19.4346 100.401 19.5652 100.516 19.5652C100.63 19.5652 100.921 19.4403 100.751 19.2869C100.582 19.1336 100.491 18.4918 100.751 18.2192L100.999 17.975C100.999 17.975 101.102 17.9523 101.151 17.9636H101.187C101.217 18.0034 101.259 18.1738 101.278 18.3442L101.259 18.4975V18.5543C101.241 18.6679 101.151 18.6338 101.06 18.4805H100.981L100.884 18.4634C100.764 18.5429 100.655 18.6338 100.643 18.6679C100.63 18.702 100.667 18.8155 100.739 18.861C100.812 18.9064 101.005 19.1733 101.193 19.2812L101.38 19.0938C101.38 19.0938 101.556 19.1506 101.641 19.1961C101.731 19.2358 101.81 19.3324 101.889 19.3324H102.058C102.239 19.2869 102.336 19.2301 102.27 19.1904C102.203 19.1506 101.907 19.0654 101.786 19.037C101.665 19.0086 101.338 18.8667 101.393 18.7985L101.417 18.7247L101.441 18.6508C101.429 18.5543 101.483 18.4975 101.556 18.5316C101.628 18.5656 101.846 18.5543 101.913 18.5259C101.979 18.4975 102.185 18.4293 102.245 18.3725C102.306 18.3158 102.324 18.0943 102.149 18.1454C101.973 18.1965 101.501 18.2987 101.441 18.293C101.441 18.2306 101.441 18.1681 101.477 18.1227C101.489 18.0999 101.574 18.1056 101.622 18.0943L101.961 18.0204C101.895 17.8671 101.864 17.6626 101.895 17.5718L101.967 17.6058L102.106 17.6683C102.227 17.6342 102.336 17.6456 102.342 17.7024C102.348 17.7592 102.493 18.0318 102.596 18.2078C102.699 18.3839 102.965 18.9462 103.038 19.0541L103.14 19.0882C103.243 19.1222 103.395 19.0768 103.522 19.0541C103.54 19.0541 103.558 18.9802 103.552 18.9462C103.503 18.7928 103.34 18.8667 103.219 18.8496H103.195C103.195 18.8496 103.141 18.7076 103.134 18.5429C103.128 18.3782 103.413 17.958 103.443 17.9352C103.473 17.9125 103.848 17.8444 104.205 17.8387L104.374 17.5604C104.447 17.4411 104.568 17.4582 104.695 17.5377L104.979 17.7137C105.173 17.549 105.251 17.39 105.155 17.3503C105.058 17.3105 104.755 17.2878 104.713 17.3559C104.671 17.4241 104.598 17.1856 104.653 17.1174L104.725 17.106L104.943 17.0777C105.106 16.9641 105.282 16.8846 105.324 16.8902L105.354 16.9073L105.626 17.072C105.741 16.9357 105.905 16.8107 105.983 16.7937C106.062 16.7766 106.346 16.7426 106.449 16.6176C106.552 16.4927 106.909 16.2201 106.854 16.1349C106.8 16.0497 106.661 15.7657 106.642 15.7089C106.624 15.6521 106.824 15.6464 106.812 15.6976L106.836 15.7203L106.933 15.7941C107.048 15.8623 107.151 15.9815 107.163 16.061C107.175 16.1406 107.247 16.3564 107.284 16.3791C107.32 16.4018 107.501 16.3223 107.628 16.1349C107.755 15.9475 108.1 15.5045 108.142 15.5385C108.185 15.5726 108.276 15.6805 108.251 15.7032C108.227 15.726 108.185 15.8168 108.239 15.8509H108.275C108.342 15.8395 108.457 15.8055 108.463 15.7771L108.481 15.6408C108.475 15.4988 108.288 15.3284 108.07 15.2659C107.852 15.2035 107.471 15.7657 107.459 15.7828C107.447 15.7998 107.314 15.8225 107.235 15.7373C107.157 15.6521 106.83 15.5613 106.836 15.4988C106.842 15.4363 106.812 15.2603 106.794 15.2319C106.776 15.2035 106.776 15.1183 106.83 15.1183C106.884 15.1183 107.157 15.3114 107.338 15.3909L107.483 15.1921L107.653 14.9592C108.034 14.8229 108.294 14.7718 108.221 14.8343C108.148 14.8968 108.076 15.1012 108.251 15.1012H108.378L108.536 15.0842C108.596 15.1751 108.705 15.2659 108.771 15.2886C108.838 15.3114 109.104 15.2886 109.104 15.1694C109.104 15.0501 109.153 14.7321 109.207 14.7321C109.261 14.7321 109.364 14.7718 109.34 14.8229V14.9422C109.358 15.0217 109.304 15.1751 109.225 15.283L109.37 15.3341L109.467 15.3682C109.624 15.3284 109.709 15.2205 109.667 15.1296L109.63 15.0444V15.0331C109.63 15.0331 109.679 14.9876 109.703 14.9706H109.721L109.884 15.0047C110.066 15.0444 110.217 15.0047 110.223 14.9308L110.199 14.8627L110.175 14.7945C110.163 14.6866 110.211 14.6355 110.277 14.681C110.344 14.7264 110.604 14.8002 110.665 14.7207C110.725 14.6412 110.737 14.4765 110.737 14.3913C110.737 14.3061 111.064 14.2209 111.263 14.2152C111.463 14.2096 111.632 13.7723 111.699 13.7268H111.753C111.808 13.7325 111.874 13.795 111.892 13.8347C111.917 13.8915 111.874 13.9654 111.904 14.0165C111.929 14.0562 112.05 14.1017 112.086 14.0903L112.237 14.0335C112.382 13.954 112.552 13.8745 112.618 13.8574C112.685 13.8404 112.836 13.7723 112.775 13.7495C112.715 13.7268 112.576 13.6416 112.6 13.6076C112.624 13.5735 112.878 13.4883 113.084 13.4372C113.29 13.3861 113.858 13.1646 114.015 13.2043L114.154 13.2157L114.433 13.2327C114.39 13.0794 114.39 12.8806 114.433 12.7897C114.475 12.6989 114.826 12.8011 114.898 12.7556L114.941 12.7045C115.05 12.5682 115.092 12.3127 115.406 12.5739C115.437 12.5966 115.636 12.5512 115.654 12.5171C115.763 12.2559 115.89 12.0968 116.259 12.3411L116.289 12.3638C116.416 12.3013 116.767 12.1082 117.058 11.9321L117.324 11.7731C117.366 11.7504 117.523 11.6027 117.523 11.5857V11.5573C117.523 11.5232 117.572 11.421 117.638 11.3301C117.705 11.2393 118.074 11.1768 118.037 11.279V11.3585C118.037 11.4153 118.068 11.4835 118.11 11.5346C118.207 11.6538 118.316 11.5516 118.334 11.5005L118.443 11.1484C118.854 11.0575 119.495 10.819 119.864 10.6202L120.299 10.6032C120.342 10.6032 120.384 10.5237 120.414 10.4725L120.56 10.2397C120.705 10.376 120.868 10.393 120.922 10.2738C120.977 10.1545 121.721 9.98979 122.084 9.85349L122.211 9.72286C122.289 9.64335 122.368 9.55816 122.459 9.49001L122.483 9.46729C122.586 9.47865 122.646 9.53544 122.616 9.59792C122.586 9.66039 122.64 9.80237 122.803 9.7399C122.967 9.67743 123.463 9.47297 123.59 9.39914C123.717 9.32531 124.164 9.10381 124.352 9.10381C124.539 9.10381 124.945 8.89367 125.193 9.07541L124.866 9.32531H124.854C124.975 9.44457 125.114 9.39346 125.168 9.22308C125.223 9.0527 125.453 8.6665 125.568 8.71761C125.682 8.76873 125.894 8.96751 125.906 8.79145L126.221 8.85392C126.287 8.86528 126.384 8.79713 126.457 8.75169C126.475 8.74033 126.457 8.6665 126.42 8.64378C126.281 8.55291 126.178 8.62674 126.088 8.70626L126.076 8.71761C126.003 8.72897 125.979 8.65514 126.027 8.56427C126.076 8.4734 126.233 8.26894 126.281 8.30302C126.33 8.3371 126.505 8.2803 126.572 8.18943C126.638 8.09856 127.134 7.95658 127.243 7.77484H127.648C127.763 7.94522 127.896 8.06449 127.945 8.04177V8.03041C127.781 7.72372 128.205 7.6215 128.301 7.40568V7.38864C128.338 7.37728 128.501 7.32617 128.682 7.27505L128.882 7.35457C129.142 7.45679 129.203 7.27505 129.324 7.13875C129.408 7.0422 129.699 7.19554 129.783 6.92293C129.85 6.70144 130.261 6.67304 130.509 6.72983C130.672 6.76391 130.739 6.79231 130.727 6.92293L130.715 7.01948C130.715 7.17282 130.836 7.22962 130.981 7.14443L130.999 7.08195L131.065 6.8775C130.896 6.70144 130.975 6.45722 131.241 6.33228L131.489 6.21301C131.555 6.18461 131.628 6.11078 131.676 6.11646C132.36 6.21869 132.608 5.64507 133.164 5.54852H133.201C133.231 5.41222 133.273 5.34975 133.303 5.41222C133.334 5.47469 133.606 5.57124 133.83 5.49741C134.053 5.42358 134.434 5.02602 134.465 5.0601L134.483 5.09417L134.501 5.12825C134.525 5.19072 134.628 5.17937 134.731 5.09985L134.815 5.03738C134.894 4.98059 134.961 4.91243 135.051 4.867L135.069 4.85564C135.154 4.92379 135.245 4.90108 135.275 4.81021L135.348 4.77045L135.402 4.74205C135.517 4.77045 135.662 4.81589 135.723 4.8386C135.783 4.86132 136.146 4.69094 136.382 4.56031C136.618 4.42969 137.271 4.16844 137.465 4.08893L137.64 4.00941C137.706 3.97534 137.791 3.87879 137.809 3.88447L137.991 3.9583C138.19 3.94694 138.42 3.83335 138.499 3.70273L138.735 3.73113C138.807 3.74248 139.013 3.78224 139.11 3.82767L139.164 3.85607C139.255 3.85607 139.321 3.82767 139.309 3.80496C139.297 3.78224 139.249 3.66865 139.219 3.6005H139.454C139.545 3.6005 139.648 3.56074 139.733 3.52667C139.848 3.48123 139.944 3.41308 140.053 3.36197H140.071C140.114 3.36197 140.132 3.41876 140.114 3.48123C140.096 3.54371 140.059 3.71409 140.09 3.73113C140.12 3.74816 140.235 3.73113 140.277 3.64593L140.331 3.57778L140.646 3.19158C141.021 3.24838 141.42 3.25974 141.547 3.2143L141.614 3.25406C141.68 3.29381 141.674 3.42444 141.741 3.45284L141.85 3.49259C142.013 3.49259 142.146 3.41876 142.146 3.33357C142.146 3.24838 142.061 2.99849 141.952 2.98713C141.844 2.97577 141.553 2.92465 141.565 2.87354L141.589 2.86218L141.698 2.81107C141.819 2.77131 142.019 2.77131 142.152 2.81107C142.285 2.85082 142.702 2.79403 142.769 2.78267L142.823 2.79403C143.114 2.85082 143.223 2.98145 143.138 3.17455C143.126 3.20862 143.035 3.23134 143.029 3.26542V3.33357C143.041 3.41308 143.144 3.45852 143.253 3.43012L143.307 3.379L143.525 3.18591C143.858 3.26542 144.136 3.34493 144.142 3.36765C144.148 3.39036 144.323 3.36197 144.505 3.2427H144.674L144.922 3.22566C145.2 3.28813 145.448 3.41876 145.472 3.51531C145.497 3.61186 145.866 3.6289 145.884 3.66865C145.902 3.70841 145.902 3.9583 145.86 4.12868L146.186 4.10596C146.198 4.21955 146.138 4.4808 146.053 4.69094L146.235 4.91811C146.325 5.0317 146.622 5.2532 146.265 5.43494C146.253 5.44062 146.319 5.53717 146.337 5.59396C146.362 5.66211 146.374 5.73594 146.392 5.80978L146.422 6.355L146.519 6.57649C146.622 6.8207 146.712 7.12739 146.712 7.2637C146.712 7.4 147.087 7.71237 147.124 7.7862C147.16 7.86003 147.16 8.07585 147.075 8.08152L147.009 8.10424C146.87 8.15536 146.724 8.20079 146.616 8.2803C146.561 8.31438 146.924 8.45068 146.555 8.49044L146.446 8.5018C146.337 8.59835 146.204 8.71761 146.144 8.76873C146.083 8.81984 145.914 9.01294 145.89 9.09245L145.841 9.10381L145.66 9.15493C145.448 9.16629 145.182 9.29691 145.067 9.45025L144.922 9.55816L144.759 9.67743C144.535 9.77966 144.196 9.933 144.009 10.0239C143.821 10.1147 143.041 10.518 142.69 10.7111L142.376 10.8871L142.352 10.8985C142.352 10.8985 142.164 10.9155 141.983 10.8985C141.801 10.8815 141.408 11.2563 141.299 11.3301C141.19 11.404 140.67 11.6766 140.398 11.7731C140.126 11.8697 139.497 12.3013 139.442 12.3183C139.388 12.3354 139.182 12.3638 139.092 12.3865C139.001 12.4092 138.747 12.625 138.656 12.6818C138.565 12.7386 138.311 12.7784 138.317 13.0226H137.827C137.725 13.0567 137.658 13.0567 137.676 13.0226C137.694 12.9885 137.694 12.892 137.646 12.8692C137.598 12.8465 137.44 12.8749 137.325 12.909C137.211 12.9431 137.253 13.3747 137.065 13.653L136.696 13.6984L136.406 13.7325C136.194 13.8631 135.898 13.9994 135.753 14.0335C135.608 14.0676 135.36 14.2436 135.19 14.3572L135.057 14.4424L134.864 14.5617C134.64 14.6923 134.404 14.7889 134.344 14.7718L134.283 14.7605L134.211 14.7491C134.132 14.7377 133.944 14.8116 133.799 14.9138C133.654 15.016 133.225 15.4079 133.055 15.4817C132.886 15.5556 132.42 15.743 132.414 15.76C132.408 15.7771 132.523 15.8112 132.692 15.7941C132.862 15.7771 133.394 15.6748 133.515 15.6181L133.624 15.5669L134.09 15.3454C134.235 15.3795 134.38 15.4306 134.531 15.4306C134.592 15.4306 134.628 15.2886 134.707 15.2489C134.827 15.1807 134.973 15.1126 135.112 15.1069H135.39C135.674 15.0217 135.91 14.8173 135.922 14.6412L136.146 14.7321L136.521 14.8911C136.588 14.6639 136.721 14.4765 136.817 14.4765C136.914 14.4765 137.271 14.4651 137.386 14.4538V14.4367L137.416 14.1755C137.688 14.1698 138.003 14.1471 138.112 14.1301C138.221 14.113 138.565 13.9767 138.668 13.9597C138.771 13.9426 139.2 13.9426 139.364 13.9142C139.527 13.8858 139.884 13.5848 139.975 13.4542L140.198 13.5848H140.21C140.356 13.4656 140.489 13.3861 140.507 13.4258C140.525 13.4656 140.67 13.4769 140.779 13.3236L140.918 13.2554C141.039 13.1986 141.227 13.227 141.39 13.2214H141.62C141.777 13.0907 141.977 12.9885 142.055 12.9885L142.128 12.9999C142.188 13.0112 142.243 13.0567 142.303 13.0567C142.454 13.0567 142.436 12.7443 142.721 12.9317L142.775 12.9715C142.962 12.9033 143.247 12.7784 143.416 12.6989L143.549 12.608C143.725 12.483 143.833 12.8352 144.003 12.6364L144.112 12.5114C144.275 12.5512 144.608 12.6307 144.856 12.6989L144.934 12.4319L144.946 12.3978C145.001 12.3751 145.218 12.3127 145.424 12.2615C145.63 12.2104 146.198 12.1196 146.235 12.1707C146.271 12.2218 146.392 12.3354 146.404 12.2615C146.416 12.1877 146.652 12.0514 146.888 12.1025L147.033 12.0571C147.196 12.0855 147.341 12.1196 147.366 12.1309C147.39 12.1423 147.523 12.2275 147.656 12.2729C147.789 12.3183 147.946 12.7159 147.97 12.7954C147.995 12.8749 148.66 12.8749 148.902 12.892C149.144 12.909 149.942 13.0567 150.142 13.1475C150.341 13.2384 150.68 13.8177 150.771 13.954L150.456 13.9824C150.42 13.9824 150.366 14.1244 150.39 14.1755L150.426 14.255C150.384 14.3118 150.293 14.4027 150.232 14.4538C150.172 14.5049 150.359 14.6412 150.426 14.7094C150.493 14.7775 150.366 15.0444 150.257 15.1694L150.565 15.2375L150.807 15.2886C150.728 15.4647 150.614 15.7203 150.559 15.8509C150.505 15.9815 150.511 16.4586 150.299 16.6119L150.783 16.6233H150.807C150.825 16.6801 150.849 16.8334 150.862 16.9754C150.874 17.1174 150.934 17.5206 150.952 17.5774L150.928 17.6058L150.728 17.8103C150.91 17.958 151.152 18.1681 151.267 18.2703C151.382 18.3725 150.753 18.8269 150.511 18.9348L150.287 19.02C150.027 19.1222 149.876 19.4062 149.718 19.6334C149.616 19.781 149.809 19.9173 149.997 19.8037C150.22 19.6731 150.287 19.9798 150.462 19.8492C150.607 19.7413 150.71 19.5823 150.989 19.5993L151.164 19.6107C151.364 19.5709 151.648 19.5766 151.799 19.6163L151.914 19.5936C152.029 19.5709 152.095 19.4346 152.21 19.3892L152.319 19.3494C152.47 19.3494 152.736 19.4062 152.9 19.463C153.063 19.5198 153.571 19.3608 153.632 19.3721C153.692 19.3835 153.988 19.4743 154.212 19.5311C154.436 19.5879 155.126 19.4176 155.259 19.4857C155.392 19.5539 155.851 19.7129 155.918 19.6618C155.984 19.6107 156.202 19.5539 156.281 19.6107C156.359 19.6674 156.535 19.8151 156.523 19.8265C156.511 19.8378 156.184 19.8435 155.851 19.8378L155.555 19.8605L155.398 19.8719C155.247 19.9968 155.398 20.1275 155.73 20.1559L155.99 20.0877C156.251 20.0196 156.432 20.3376 156.692 20.1104L156.789 20.0252C157.013 20.065 157.236 20.1218 157.285 20.1445C157.333 20.1672 157.424 20.2695 157.472 20.3035C157.521 20.3376 157.769 20.2922 157.871 20.2524C157.974 20.2127 158.295 20.1786 158.349 20.207C158.404 20.2354 158.47 20.3603 158.452 20.4001C158.434 20.4398 158.253 20.5194 158.101 20.4966C157.95 20.4739 157.787 20.826 157.672 20.8601C157.557 20.8942 157.472 21.1838 157.521 21.2009C157.569 21.2179 157.672 21.3485 157.63 21.4337C157.587 21.5189 157.974 21.5814 158.101 21.6439L158.228 21.6609C158.283 21.6666 158.343 21.6495 158.404 21.6382L158.507 21.6211C158.615 21.6041 158.755 21.5928 158.809 21.5928C158.863 21.5928 159.015 21.6609 158.99 21.7461C158.966 21.8313 159.003 22.0698 158.924 22.0869C158.845 22.1039 158.537 22.0698 158.361 22.0471C158.186 22.0244 158.192 22.3879 158.259 22.2913C158.325 22.1948 158.682 22.3595 158.609 22.4447C158.537 22.5298 158.373 22.8025 158.434 22.8195C158.494 22.8365 158.833 22.9842 159.117 23.1603L159.45 23.2227H159.462C159.45 23.2909 159.359 23.4556 159.263 23.5919C159.166 23.7282 159.335 24.1258 159.281 24.1541C159.226 24.1825 159.184 24.3416 159.317 24.4154L159.456 24.4665C159.511 24.4836 159.613 24.4552 159.668 24.4211C159.752 24.3756 159.855 24.3813 159.916 24.4495L159.94 24.4836C159.982 24.5176 159.843 24.6255 159.619 24.7164C159.396 24.8073 158.742 24.6028 158.7 24.6085C158.658 24.6142 158.367 24.7618 158.125 24.9038C157.884 25.0458 156.97 25.2276 156.928 25.2276C156.886 25.2276 156.638 25.3468 156.456 25.4604L156.269 25.5172L156.081 25.574C155.851 25.591 155.446 25.6194 155.18 25.6365L155.089 25.733L154.872 25.9772C154.587 25.8977 154.249 25.858 154.122 25.892C153.995 25.9261 153.559 25.9261 153.438 25.9432C153.317 25.9602 152.785 26.0738 152.458 26.1476C152.132 26.2214 150.868 26.4316 150.384 26.5054C149.9 26.5792 148.539 26.7496 148.46 26.7723L148.388 26.7951L147.559 26.9768L146.87 26.9598C146.192 27.1756 145.472 27.4028 145.273 27.4652C145.073 27.5277 144.13 27.664 143.628 27.7549L143.168 27.7662L142.727 27.7776C142.291 27.8912 141.916 27.9934 141.898 28.0161C141.88 28.0388 141.716 28.0729 141.602 28.0956C141.487 28.1184 141.057 28.0729 140.954 28.124C140.852 28.1751 140.114 28.266 139.545 28.3228L139.043 28.4194C138.874 28.4534 138.577 28.3115 138.505 28.3682L138.281 28.55C138.106 28.4421 137.912 28.4023 137.852 28.4591C137.791 28.5159 137.495 28.4478 137.38 28.4989C137.265 28.55 136.817 28.3228 136.581 28.2944L136.436 28.2149C136.213 28.0956 135.989 28.1127 135.759 28.1013H135.717C135.668 28.0672 135.45 27.9707 135.227 27.8855C135.003 27.8003 134.156 27.5447 133.866 27.4595L133.666 27.2892L133.473 27.1245C133.618 26.9711 133.745 26.8291 133.757 26.8007C133.769 26.7723 133.696 26.6133 133.63 26.4713L133.757 26.335L133.805 26.2839C133.793 26.1987 133.727 26.034 133.648 25.9204C133.569 25.8068 133.527 25.3809 133.557 25.273C133.588 25.1651 133.219 25.0117 133.207 24.9606C133.194 24.9095 133.134 24.4779 133.086 24.1201L132.995 23.802L132.977 23.7339C132.771 23.7055 132.487 23.7225 132.348 23.768C132.209 23.8134 131.64 24.0065 131.404 24.0974C131.168 24.1882 130.382 24.4949 130.231 24.6937L129.838 24.6199L129.614 24.5744C129.311 24.705 128.888 24.8868 128.676 24.972C128.465 25.0572 127.733 25.2559 127.551 25.3411C127.37 25.4263 126.68 25.6365 126.451 25.6933C126.221 25.7501 125.658 26.1306 125.574 26.1987C125.489 26.2669 125.199 26.0965 125.162 26.0965C125.126 26.0965 124.848 26.1476 124.557 26.1987C124.267 26.2498 123.578 26.8064 123.324 26.9143C123.07 27.0222 122.368 27.1642 122.38 27.2608C122.392 27.3573 121.981 27.3062 121.908 27.3289C121.836 27.3516 121.685 27.4936 121.636 27.4823C121.588 27.4709 121.213 27.5618 120.904 27.6583L120.632 27.7549L120.469 27.8117C120.318 27.9025 120.112 27.965 120.015 27.9536C119.918 27.9423 119.634 28.107 119.556 28.1524C119.477 28.1979 119.066 28.3569 118.83 28.4307L118.612 28.4762C118.261 28.5443 117.886 28.5613 117.777 28.9078C117.638 28.9021 117.342 28.9021 117.124 28.9135C116.906 28.9248 116.574 29.3224 116.537 29.3281C116.501 29.3337 116.302 29.3678 116.187 29.3792C116.072 29.3905 115.558 29.595 115.243 29.7313C114.929 29.8676 113.882 30.1743 113.713 30.2481C113.544 30.3219 113.023 30.5491 112.945 30.6116C112.866 30.6741 112.425 30.7138 112.322 30.7763C112.219 30.8388 111.814 30.9864 111.693 31.0092C111.572 31.0319 111.179 31.1455 111.082 31.1909C110.985 31.2363 110.29 31.4919 109.751 31.6623L109.304 31.8895L109.219 31.9292C109.11 31.9519 108.838 31.969 108.608 31.969L108.572 32.1905V32.2132C108.457 32.2302 108.167 32.2984 107.919 32.3665C107.671 32.4347 106.939 32.7414 106.685 32.7925C106.431 32.8436 105.626 33.3093 105.245 33.4229L104.919 33.5876L104.501 33.7977C103.975 33.9511 103.334 34.1555 103.068 34.2521C102.802 34.3486 102.04 34.678 101.919 34.7291C101.798 34.7803 101.229 34.9563 100.957 35.0301C100.685 35.104 99.8684 35.4788 99.6748 35.5129C99.4813 35.547 98.7857 35.7969 98.447 35.8593L98.1688 35.9672L98.1265 35.9843C98.066 35.9786 97.6124 36.0638 97.1285 36.1717L96.7535 36.3648C96.5176 36.4841 96.2696 36.5238 96.0882 36.4386C95.8342 36.3194 95.6648 36.2966 95.4531 36.4557L95.4229 36.4784C95.3261 36.45 94.939 36.3194 94.5701 36.1831C94.2011 36.0468 93.1124 35.9048 93.2092 35.8253L93.2274 35.7685L93.2395 35.7174C93.1971 35.6549 93.0761 35.6208 92.9733 35.6378L92.9068 35.6833L92.8584 35.7174C92.8282 35.8423 92.7919 35.7741 92.7737 35.564C92.7556 35.3539 92.937 34.8711 92.7919 34.837L92.7495 34.7689C92.6951 34.6837 92.7072 34.5588 92.7435 34.4622L92.8282 34.2294C92.5923 34.1782 92.4471 34.1214 92.5016 34.1044C92.556 34.0874 92.6951 34.0135 92.677 33.9738L92.6467 33.9624C92.4229 33.8716 92.1447 33.8204 91.9935 33.6841C91.8907 33.5933 91.9572 33.3888 91.9693 33.2355C91.9693 33.1844 92.0842 33.1162 92.0661 33.0878L91.9633 32.9174C91.9209 32.713 91.7697 32.4006 91.6246 32.2245L91.4613 32.0712L91.4008 32.0144C91.2919 31.9746 91.2617 31.9008 91.3342 31.844C91.4068 31.7872 91.4068 31.4408 91.2133 31.1568L91.2375 30.8388L91.2496 30.6684C91.3766 30.5605 91.6125 30.2708 91.7818 30.0266L91.7334 29.9187C91.7153 29.879 91.6185 29.8335 91.558 29.8392C91.3705 29.8506 91.4734 29.9017 91.5036 29.9812C91.5278 30.0323 91.3887 30.1913 91.3463 30.1856L91.056 30.1572C91.0318 30.3219 90.9592 30.4185 90.8988 30.3731C90.8383 30.3276 90.6447 30.339 90.6205 30.5037C90.5963 30.6684 89.9189 30.7479 89.8524 30.9808L89.5681 31.0546C89.1871 31.1511 88.8605 31.3045 88.6065 31.543L88.4795 31.6566C88.2859 31.6907 87.9593 31.7986 87.7597 31.8895C87.5601 31.9803 86.9069 32.1507 86.8706 32.2245L86.8162 32.2813L86.7013 32.3949C86.5077 32.429 86.2658 32.3779 86.163 32.2813C86.0601 32.1848 85.6972 31.9746 85.6912 32.0201C85.6851 32.0655 85.7517 32.2132 85.8061 32.2813L85.8484 32.3495C85.8484 32.3495 85.7396 32.4176 85.7275 32.4063C85.6488 32.3608 85.5702 32.2643 85.5339 32.4233C85.5218 32.4688 85.5763 32.5596 85.6186 32.571L85.7456 32.588C85.8968 32.5823 85.8787 32.5994 85.7093 32.6278C85.54 32.6562 85.2557 32.9231 85.2134 32.8947L85.171 32.8777L84.8807 32.747C84.8747 32.9174 84.8626 33.0708 84.8565 33.0935C84.8505 33.1162 84.796 33.1957 84.7597 33.2014C84.7235 33.2071 84.3424 33.2355 84.0037 33.2695L83.7739 33.474C83.5682 33.6557 83.3384 33.8772 82.9876 33.5989C82.9574 33.5762 82.788 33.6103 82.782 33.6217C82.7759 33.6898 82.7941 33.7636 82.8183 33.8318V33.8602C82.8727 33.917 82.7578 33.9 82.5824 33.8318C82.407 33.7636 81.9654 33.9113 82.0259 33.934C82.0864 33.9567 82.0562 34.1271 81.8263 34.2691L81.5179 33.9681C81.4695 33.917 81.409 33.8716 81.3425 33.8375L81.3062 33.8204C81.2094 33.8261 81.1247 33.9567 81.1187 34.1044L81.0884 34.235C81.0824 34.2748 80.9856 34.3259 80.9312 34.3259L80.78 34.3373C80.8223 34.2634 80.8767 34.1044 80.8949 33.9851L80.78 33.9C80.7497 33.8772 80.6832 33.8488 80.6711 33.8545L80.5562 33.9113C80.4715 34.0135 80.411 34.1214 80.4292 34.1555C80.4473 34.1896 80.4352 34.3373 80.411 34.3941C80.3868 34.4509 80.1993 34.4395 80.1752 34.4225C80.151 34.4054 79.8727 34.3543 79.782 34.3486L79.7699 34.3941ZM99.2454 20.7749C99.2394 20.6329 99.2333 20.5364 99.2454 20.5591C99.2575 20.5818 99.5176 20.6557 99.8381 20.6727L100.032 20.5761L100.225 20.4796C100.34 20.2524 100.255 20.1559 100.044 20.2638L99.8623 20.349L99.6809 20.4342C99.7232 20.6386 99.6022 20.7806 99.4087 20.7522L99.2756 20.6841L99.1547 20.6216C99.0458 20.4682 98.9551 20.4455 98.9551 20.5648C98.9551 20.6841 99.2635 20.9112 99.2575 20.7692L99.2454 20.7749ZM77.7558 33.7977C77.8345 33.8488 77.9494 33.7977 78.0159 33.6955L78.0885 33.616C78.1611 33.5422 78.5603 33.5819 78.6328 33.6614C78.6933 33.7239 78.7538 33.7977 78.8385 33.8432C78.8929 33.8716 79.0018 33.8886 79.0502 33.8602C79.0986 33.8318 79.1409 33.7296 79.1167 33.7069C78.9111 33.5308 78.8324 33.4115 79.2377 33.3434L79.3405 33.3263C79.4252 33.1844 79.3465 33.0367 79.1711 33.0026C78.9957 32.9685 78.4816 32.9799 78.4937 33.1219L78.4635 33.2355L78.4514 33.2923C78.3607 33.3377 78.2095 33.3263 78.1127 33.2639L78.1974 33.1616L78.2276 33.1276C78.276 33.0992 78.2518 33.0424 78.1732 33.014H78.1066C78.0461 33.0196 77.7256 33.7069 77.7498 33.7636L77.7679 33.7977H77.7558ZM81.905 27.4936C81.6691 27.6015 81.6146 27.6981 81.7779 27.7151C81.9412 27.7322 82.2134 28.0672 82.2739 28.1467C82.3344 28.2263 82.655 28.2831 82.661 28.3001C82.667 28.3171 82.6428 28.3853 82.5884 28.425C82.534 28.4648 82.5219 28.5329 82.54 28.5841C82.5582 28.6352 82.7759 28.6068 82.9574 28.3682L83.0299 28.1695L83.1449 27.8685C82.8182 27.7151 82.3949 27.5845 82.1953 27.5845L82.0017 27.5277L81.8929 27.4936H81.905ZM130.049 7.26937C129.916 7.24098 129.783 7.22394 129.759 7.24098C129.735 7.25802 129.584 7.3716 129.499 7.46815C129.414 7.5647 129.838 7.80324 130.08 7.70669L130.297 7.61014L130.388 7.57038C130.533 7.47951 130.182 7.29777 130.049 7.26937ZM140.743 3.96398C140.803 4.04349 140.948 4.06621 141.063 4.02077C141.178 3.97534 141.438 3.822 141.45 3.7936C141.462 3.7652 141.426 3.69137 141.366 3.69705H141.311L141.221 3.70841C141.118 3.71409 141.081 3.66865 141.142 3.6005L141.16 3.53803L141.172 3.48691C141.136 3.42444 141.021 3.41876 140.906 3.47555C140.791 3.53235 140.688 3.89015 140.749 3.96966L140.743 3.96398ZM133.122 5.91768C133.031 5.83817 132.898 5.85521 132.826 5.95176C132.753 6.04831 132.263 6.28116 132.239 6.31524C132.215 6.34932 132.227 6.46858 132.323 6.51402L132.36 6.49698L132.517 6.41179C132.711 6.39475 132.959 6.355 133.067 6.33228C133.176 6.30956 133.219 6.00287 133.128 5.92336L133.122 5.91768ZM119.797 11.5289C119.858 11.5573 119.894 11.4324 119.882 11.2506L120.221 11.4551L120.414 11.5743C120.517 11.4664 120.608 11.3244 120.62 11.262C120.632 11.1995 120.59 11.0291 120.523 11.0291C120.457 11.0291 120.142 11.12 119.985 11.2393L119.773 11.279C119.773 11.279 119.743 11.4153 119.773 11.4778L119.797 11.5289ZM104.03 18.4748C104.126 18.6168 104.284 18.6281 104.374 18.5032C104.465 18.3782 104.864 18.1113 104.925 18.0715C104.985 18.0318 104.804 17.8898 104.64 17.8444L104.586 17.8841C104.386 18.0318 104.199 18.2022 104.084 18.3953L104.036 18.4748H104.03ZM85.8726 26.9427C85.9876 27.0052 86.0722 26.9143 86.0662 26.7439C86.0601 26.5736 85.8061 26.3407 85.7335 26.3577C85.6609 26.3748 85.4855 26.4543 85.5763 26.4827C85.667 26.5111 85.788 26.5736 85.7033 26.5963C85.6186 26.619 85.5823 26.7723 85.6609 26.8575L85.7819 26.9086L85.8666 26.9427H85.8726ZM137.876 4.18547C137.833 4.1514 137.761 4.20819 137.706 4.3161L137.622 4.37857L137.501 4.47512C137.338 4.56031 137.18 4.65686 137.156 4.69094C137.132 4.72502 137.15 4.8386 137.253 4.87836H137.344L137.434 4.867C137.525 4.81589 137.67 4.7023 137.755 4.62279C137.84 4.54328 137.918 4.21955 137.876 4.19115V4.18547ZM123.142 10.0579C123.185 10.092 123.233 10.0239 123.257 9.9046C123.281 9.78534 123.838 9.92732 124.037 9.9046L124.219 9.87053H124.231C124.219 9.80237 124.11 9.7115 123.989 9.67175C123.868 9.63199 123.475 9.68311 123.366 9.73422C123.257 9.78534 123.106 10.0182 123.148 10.0523L123.142 10.0579ZM77.1994 30.4639C77.145 30.1686 77.024 30.0437 76.9272 30.1913C76.8304 30.339 76.7942 30.6797 77.0603 30.6286L77.1631 30.5094L77.1994 30.4639ZM136.225 5.23616C136.4 5.23616 136.545 5.16801 136.557 5.08849L136.6 5.04874C136.715 4.95219 136.836 4.85564 136.636 4.76477L136.581 4.74205C136.442 4.82156 136.182 5.0033 136.007 5.14529H135.747L135.698 5.13393C135.584 5.19072 136.049 5.24184 136.219 5.24184L136.225 5.23616ZM114.221 13.6303C114.07 13.8972 114.148 14.0392 114.408 13.9483L114.481 13.5678C114.481 13.5678 114.523 13.5394 114.535 13.5224L114.554 13.4826C114.566 13.4315 114.487 13.3917 114.384 13.3861L114.366 13.4145L114.221 13.6303ZM80.2114 32.7925C80.1389 32.7982 80.157 32.8606 80.2538 32.9231C80.3505 32.9856 80.6832 32.8209 80.8102 32.7811L80.9251 32.7641C81.028 32.747 81.1308 32.7414 81.2215 32.7186C81.2457 32.713 81.2578 32.6448 81.2457 32.6107L81.2336 32.5767C81.1913 32.5483 81.0038 32.4858 80.8223 32.4404C80.6409 32.3949 80.284 32.7868 80.2114 32.7925ZM81.6388 31.7077C81.6025 32.0674 81.8324 32.3381 82.3283 32.5199L81.6388 31.7077Z" fill="#EE6529" fill-opacity="0.39"/>
</g>
</svg>
