<svg width="16" height="17" viewBox="0 0 16 17" fill="none" xmlns="http://www.w3.org/2000/svg">
<g id="01 align center">
<path id="Vector" d="M12 4.5C12 3.43913 11.5786 2.42172 10.8284 1.67157C10.0783 0.921427 9.06087 0.5 8 0.5C6.93913 0.5 5.92172 0.921427 5.17157 1.67157C4.42143 2.42172 4 3.43913 4 4.5H0V14.5C0 15.0304 0.210714 15.5391 0.585786 15.9142C0.960859 16.2893 1.46957 16.5 2 16.5H14C14.5304 16.5 15.0391 16.2893 15.4142 15.9142C15.7893 15.5391 16 15.0304 16 14.5V4.5H12ZM8 1.83333C8.70724 1.83333 9.38552 2.11428 9.88562 2.61438C10.3857 3.11448 10.6667 3.79276 10.6667 4.5H5.33333C5.33333 3.79276 5.61428 3.11448 6.11438 2.61438C6.61448 2.11428 7.29276 1.83333 8 1.83333ZM14.6667 14.5C14.6667 14.6768 14.5964 14.8464 14.4714 14.9714C14.3464 15.0964 14.1768 15.1667 14 15.1667H2C1.82319 15.1667 1.65362 15.0964 1.5286 14.9714C1.40357 14.8464 1.33333 14.6768 1.33333 14.5V5.83333H4V7.16667H5.33333V5.83333H10.6667V7.16667H12V5.83333H14.6667V14.5Z" fill="white"/>
</g>
</svg>
