<svg width="13" height="8" viewBox="0 0 13 8" fill="none" xmlns="http://www.w3.org/2000/svg">
<g id="Group">
<path id="Vector" d="M6.50329 3.41525L2.88713 7.03125C2.70358 7.21498 2.47909 7.30664 2.21368 7.30664C1.9483 7.30664 1.72392 7.21496 1.54039 7.03125L0.982264 6.47331C0.798793 6.28986 0.707031 6.06534 0.707031 5.80004C0.707031 5.53474 0.798793 5.31032 0.982264 5.12659L5.82612 0.275364C6.00967 0.0917881 6.23413 2.41597e-07 6.49957 2.532e-07C6.765 2.64802e-07 6.98928 0.091762 7.17291 0.275364L12.0168 5.12656C12.2003 5.3103 12.2921 5.53468 12.2921 5.80001C12.2921 6.06534 12.2003 6.28984 12.0168 6.47328L11.4587 7.03123C11.2753 7.21496 11.0521 7.30662 10.789 7.30662C10.5262 7.30662 10.3005 7.21493 10.112 7.03123L6.50329 3.41525Z" fill="#727272"/>
</g>
</svg>
