<svg width="15" height="10" viewBox="0 0 15 10" fill="none" xmlns="http://www.w3.org/2000/svg">
<g id="Group">
<path id="Vector" d="M12.2889 5C10.9355 5 9.82812 6.10739 9.82812 7.46094C9.82812 8.81448 10.9355 9.92188 12.2889 9.92188C13.6424 9.92188 14.7497 8.81448 14.7497 7.46094C14.7497 6.10739 13.6424 5 12.2889 5ZM12.2889 9.10156C11.3867 9.10156 10.6484 8.36325 10.6484 7.46094C10.6484 6.55862 11.3867 5.82031 12.2889 5.82031C13.1912 5.82031 13.9295 6.55862 13.9295 7.46094C13.9295 8.36325 13.1912 9.10156 12.2889 9.10156Z" fill="#284A0C"/>
<path id="Vector_2" d="M3.2108 5C1.85733 5 0.75 6.10739 0.75 7.46094C0.75 8.81448 1.85733 9.92188 3.2108 9.92188C4.56427 9.92188 5.6716 8.81448 5.6716 7.46094C5.6716 6.10739 4.56427 5 3.2108 5ZM3.2108 9.10156C2.30853 9.10156 1.57027 8.36325 1.57027 7.46094C1.57027 6.55862 2.30853 5.82031 3.2108 5.82031C4.11307 5.82031 4.85134 6.55862 4.85134 7.46094C4.85134 8.36325 4.11307 9.10156 3.2108 9.10156Z" fill="#284A0C"/>
<path id="Vector_3" d="M4.03125 2.53906H8.18727V5H4.03125V2.53906ZM10.2379 0.898438H9.41767C9.19098 0.898438 9.00754 0.714988 9.00754 0.488281C9.00754 0.261574 9.19098 0.078125 9.41767 0.078125H10.2379C10.4646 0.078125 10.6481 0.261574 10.6481 0.488281C10.6481 0.714988 10.4646 0.898438 10.2379 0.898438Z" fill="#284A0C"/>
<path id="Vector_4" d="M12.5182 7.8034C12.4444 7.84441 12.3705 7.86905 12.2885 7.86905C12.1573 7.86905 12.026 7.8034 11.944 7.68861L10.0246 4.81752C9.89336 4.62882 9.95078 4.37452 10.1312 4.2433C10.3198 4.12022 10.5741 4.16944 10.7054 4.35811L12.2885 6.71246L12.633 7.22921C12.7561 7.41788 12.7069 7.67217 12.5182 7.8034ZM7.77705 6.63858V8.27921H3.21089C2.75975 8.27921 2.39062 7.91007 2.39062 7.45889C2.39062 7.00772 2.75975 6.63858 3.21089 6.63858H7.77705Z" fill="#284A0C"/>
<path id="Vector_5" d="M10.2378 0.078125C10.0081 0.078125 9.82762 0.258566 9.82762 0.488281V1.71875H8.59722C8.45781 1.71875 8.33474 1.7844 8.25274 1.89919L6.70785 4.17969H5.48294L4.17872 2.22734C3.96545 1.90742 3.61273 1.71875 3.22723 1.71875H1.16013C0.930431 1.71875 0.75 1.89919 0.75 2.12891C0.75 3.17893 1.54563 4.05661 2.57097 4.16325L3.88342 6.13203C4.09669 6.45195 4.44941 6.64062 4.8349 6.64062H5.82745L6.10908 7.15742L6.35516 7.64958C6.552 8.03516 6.94578 8.28125 7.3887 8.28125H7.99023C8.53978 8.28125 9.00736 7.89573 9.11399 7.3543L9.17964 7.06721C9.50772 5.39372 10.9924 4.17969 12.6986 4.17969C12.9283 4.17969 13.1087 3.99925 13.1087 3.76953V2.94922C13.1087 1.36602 11.8209 0.078125 10.2378 0.078125Z" fill="#284A0C"/>
</g>
</svg>
