<svg width="14" height="16" viewBox="0 0 14 16" fill="none" xmlns="http://www.w3.org/2000/svg">
<g id="Group">
<rect id="Rectangle 34624934" x="0.933594" y="1.76562" width="12" height="11" fill="#F6B900"/>
<circle id="Ellipse 1987" cx="2.99609" cy="11.375" r="2" fill="#F6B900"/>
<circle id="Ellipse 1988" cx="10.9961" cy="11.375" r="2" fill="#F6B900"/>
<path id="Vector" d="M6.99858 0.00390625C3.27645 0.00390625 0.261719 0.424972 0.261719 3.37232V11.7934C0.261719 12.5386 0.59014 13.1997 1.10381 13.6628V15.1618C1.10381 15.625 1.48276 16.0039 1.9459 16.0039H2.78804C3.25541 16.0039 3.63013 15.625 3.63013 15.1618V14.3197H10.367V15.1618C10.367 15.625 10.7417 16.0039 11.2091 16.0039H12.0512C12.5143 16.0039 12.8933 15.625 12.8933 15.1618V13.6629C13.4069 13.1997 13.7354 12.5387 13.7354 11.7934V3.37232C13.7354 0.424972 10.7207 0.00390625 6.99858 0.00390625ZM3.2091 12.6355C2.51014 12.6355 1.94594 12.0713 1.94594 11.3723C1.94594 10.6734 2.51014 10.1092 3.2091 10.1092C3.90806 10.1092 4.47226 10.6734 4.47226 11.3723C4.47226 12.0713 3.90802 12.6355 3.2091 12.6355ZM10.7881 12.6355C10.0891 12.6355 9.5249 12.0713 9.5249 11.3723C9.5249 10.6734 10.0891 10.1092 10.7881 10.1092C11.487 10.1092 12.0512 10.6734 12.0512 11.3723C12.0512 12.0713 11.487 12.6355 10.7881 12.6355ZM12.0512 7.58286H1.94594V3.37232H12.0512V7.58286Z" fill="#B34B1E"/>
</g>
</svg>
