<svg width="14" height="14" viewBox="0 0 14 14" fill="none" xmlns="http://www.w3.org/2000/svg">
<g id="Group">
<path id="Vector" d="M13.8153 5.65084L11.8193 3.96859V1.58054C11.8194 1.52189 11.8079 1.4638 11.7855 1.40959C11.7631 1.35539 11.7303 1.30613 11.6888 1.26463C11.6474 1.22313 11.5982 1.19021 11.544 1.16775C11.4898 1.14529 11.4317 1.13373 11.3731 1.13373H9.95866C9.89997 1.13365 9.84184 1.14515 9.78759 1.16758C9.73335 1.19001 9.68407 1.22292 9.64257 1.26442C9.60106 1.30593 9.56816 1.35521 9.54573 1.40946C9.5233 1.4637 9.5118 1.52184 9.51188 1.58054V2.02327L7.38876 0.233685C7.28271 0.133769 7.1425 0.078125 6.9968 0.078125C6.8511 0.078125 6.71089 0.133769 6.60484 0.233685L0.184166 5.65084C0.0992143 5.72994 0.0400392 5.83277 0.0143435 5.94596C-0.0113522 6.05915 -0.00237834 6.17746 0.040097 6.28548C0.0828588 6.39283 0.156873 6.48487 0.252551 6.54966C0.348228 6.61446 0.461158 6.64902 0.576709 6.64888H1.50528V13.3464C1.50528 13.6631 1.76484 13.9233 2.08272 13.9233H11.9167C12.0698 13.923 12.2165 13.862 12.3247 13.7538C12.4329 13.6456 12.4938 13.4989 12.4942 13.3458V6.64946H13.4227C13.5391 6.64963 13.6527 6.6144 13.7485 6.54845C13.8444 6.4825 13.9179 6.38895 13.9593 6.28023C14.0014 6.1731 14.0102 6.05576 13.9845 5.94356C13.9588 5.83137 13.8998 5.72897 13.8153 5.65084ZM7.43542 11.8257C7.37722 11.9049 7.3012 11.9693 7.2135 12.0137C7.1258 12.0581 7.02889 12.0813 6.9306 12.0813C6.83231 12.0813 6.73539 12.0581 6.64769 12.0137C6.56 11.9693 6.48397 11.9049 6.42578 11.8257C5.62961 10.7297 4.16442 8.57204 4.16442 7.46493C4.16566 6.73142 4.45794 6.02838 4.97707 5.5102C5.4962 4.99202 6.19975 4.70107 6.93322 4.70122C7.66669 4.70107 8.37024 4.99202 8.88938 5.5102C9.40851 6.02838 9.70079 6.73142 9.70202 7.46493C9.70202 8.57204 8.23684 10.7297 7.43542 11.8257Z" fill="#B34B1E"/>
<path id="Vector_2" d="M6.9999 9.02344C7.96635 9.02344 8.74981 8.23994 8.74981 7.27344C8.74981 6.30694 7.96635 5.52344 6.9999 5.52344C6.03346 5.52344 5.25 6.30694 5.25 7.27344C5.25 8.23994 6.03346 9.02344 6.9999 9.02344Z" fill="#B34B1E"/>
</g>
</svg>
