<svg width="21" height="20" viewBox="0 0 21 20" fill="none" xmlns="http://www.w3.org/2000/svg">
<g id="Search results for Motorbike - Flaticon-12 (1) 1" clip-path="url(#clip0_402_3119)">
<g id="Group">
<path id="Vector" d="M17.2344 10C15.3007 10 13.7188 11.582 13.7188 13.5157C13.7188 15.4493 15.3007 17.0313 17.2344 17.0313C19.168 17.0313 20.75 15.4493 20.75 13.5157C20.75 11.582 19.168 10 17.2344 10ZM17.2344 15.8594C15.9454 15.8594 14.8906 14.8047 14.8906 13.5157C14.8906 12.2266 15.9454 11.1719 17.2344 11.1719C18.5234 11.1719 19.5781 12.2266 19.5781 13.5157C19.5781 14.8047 18.5234 15.8594 17.2344 15.8594Z" fill="#8B3A17"/>
<path id="Vector_2" d="M4.26562 10C2.33199 10 0.75 11.582 0.75 13.5157C0.75 15.4493 2.33199 17.0313 4.26562 17.0313C6.19926 17.0313 7.78125 15.4493 7.78125 13.5157C7.78125 11.582 6.19926 10 4.26562 10ZM4.26562 15.8594C2.9766 15.8594 1.92188 14.8047 1.92188 13.5157C1.92188 12.2266 2.9766 11.1719 4.26562 11.1719C5.55465 11.1719 6.60938 12.2266 6.60938 13.5157C6.60938 14.8047 5.55465 15.8594 4.26562 15.8594Z" fill="#8B3A17"/>
<path id="Vector_3" d="M5.4375 6.48441H11.375V10.0001H5.4375V6.48441ZM14.3047 4.14064H13.1328C12.8089 4.14064 12.5469 3.87856 12.5469 3.55469C12.5469 3.23082 12.8089 2.96875 13.1328 2.96875H14.3047C14.6286 2.96875 14.8906 3.23082 14.8906 3.55469C14.8906 3.87856 14.6286 4.14064 14.3047 4.14064Z" fill="#F6B900"/>
<path id="Vector_4" d="M17.5625 14.0066C17.457 14.0652 17.3515 14.1004 17.2344 14.1004C17.0469 14.1004 16.8594 14.0066 16.7422 13.8426L14 9.74099C13.8125 9.47142 13.8946 9.10813 14.1523 8.92067C14.4218 8.74485 14.7851 8.81516 14.9727 9.08469L17.2344 12.4481L17.7265 13.1863C17.9023 13.4558 17.832 13.8191 17.5625 14.0066ZM10.7891 12.3425V14.6863H4.26562C3.62109 14.6863 3.09375 14.159 3.09375 13.5144C3.09375 12.8699 3.62109 12.3425 4.26562 12.3425H10.7891Z" fill="#F6B900"/>
<path id="Vector_5" d="M14.3047 2.96875C13.9765 2.96875 13.7188 3.22653 13.7188 3.55469V5.31252H11.9609C11.7618 5.31252 11.5859 5.40631 11.4688 5.5703L9.26168 8.82818H7.51172L5.64844 6.03909C5.34375 5.58206 4.83984 5.31252 4.2891 5.31252H1.33594C1.00777 5.31252 0.75 5.5703 0.75 5.89847C0.75 7.39852 1.88668 8.65236 3.35152 8.8047L5.22656 11.6173C5.53125 12.0743 6.03516 12.3438 6.5859 12.3438H8.00391L8.40625 13.0821L8.75781 13.7852C9.03902 14.336 9.6016 14.6876 10.2344 14.6876H11.0938C11.8789 14.6876 12.5469 14.1369 12.6992 13.3634L12.793 12.9533C13.2617 10.5625 15.3828 8.82818 17.8203 8.82818C18.1485 8.82818 18.4062 8.5704 18.4062 8.24224V7.07035C18.4062 4.80861 16.5664 2.96875 14.3047 2.96875Z" fill="#8B3A17"/>
</g>
</g>
<defs>
<clipPath id="clip0_402_3119">
<rect width="20" height="20.0002" fill="white" transform="translate(0.75)"/>
</clipPath>
</defs>
</svg>
