<svg width="24" height="18" viewBox="0 0 24 18" fill="none" xmlns="http://www.w3.org/2000/svg">
<g id="Group">
<path id="Vector" d="M7.77013 13.0242H2.84377C1.76681 13.0242 0.890625 12.148 0.890625 11.071V6.92776C0.890625 5.85079 1.76681 4.97461 2.84377 4.97461H7.77013C8.12969 4.97461 8.42118 5.26611 8.42118 5.62566V12.3731C8.42118 12.7327 8.12969 13.0242 7.77013 13.0242Z" fill="white"/>
<path id="Vector_2" d="M13.738 0.486054C13.6274 0.432949 13.5041 0.41216 13.3822 0.426082C13.2604 0.440004 13.1449 0.488071 13.0492 0.564745L7.54297 4.97408V13.0241L13.0492 17.4335C13.1449 17.5102 13.2604 17.5582 13.3822 17.5722C13.5041 17.5861 13.6274 17.5653 13.738 17.5122C13.8486 17.4591 13.9419 17.3758 14.0072 17.272C14.0725 17.1681 14.1072 17.048 14.1072 16.9253V1.07291C14.1072 0.950248 14.0725 0.830079 14.0072 0.72625C13.9419 0.622421 13.8486 0.539158 13.738 0.486054Z" fill="white"/>
<g id="Group_2">
<path id="Vector_3" d="M20.7717 16.1088C20.6638 16.1088 20.5543 16.082 20.4536 16.0254C20.14 15.8494 20.0285 15.4525 20.2045 15.139C21.254 13.2696 21.8087 11.1448 21.8087 8.99456C21.8087 6.84449 21.2541 4.71999 20.2048 2.85069C20.0288 2.53715 20.1404 2.14027 20.4539 1.96431C20.7674 1.78827 21.1643 1.89986 21.3403 2.21336C22.4985 4.27688 23.1108 6.62179 23.1108 8.9946C23.1108 11.3677 22.4985 13.7128 21.34 15.7765C21.2205 15.9891 20.9994 16.1088 20.7717 16.1088Z" fill="white"/>
<path id="Vector_4" d="M18.4206 14.2557C18.3223 14.2557 18.2226 14.2334 18.1287 14.1862C17.8074 14.0247 17.6779 13.6333 17.8394 13.3121C18.5173 11.9636 18.861 10.5113 18.861 8.99571C18.861 7.48032 18.5173 6.02827 17.8397 4.6799C17.6782 4.35863 17.8077 3.96731 18.1291 3.80585C18.4502 3.6443 18.8417 3.7739 19.0031 4.09521C19.7728 5.62666 20.1631 7.27542 20.1631 8.99575C20.1631 10.7163 19.7727 12.3653 19.0028 13.8969C18.8884 14.1244 18.6589 14.2557 18.4206 14.2557ZM16.0377 12.3775C15.9548 12.3775 15.8727 12.3616 15.7958 12.3306C15.4621 12.1969 15.2999 11.8179 15.4336 11.4841C15.7507 10.6926 15.9115 9.85544 15.9115 8.99571C15.9115 8.13623 15.7507 7.2992 15.4338 6.50783C15.3002 6.17406 15.4624 5.79506 15.7962 5.66142C16.13 5.5277 16.5089 5.68998 16.6426 6.02375C17.0215 6.96977 17.2136 7.9697 17.2136 8.99575C17.2136 10.0221 17.0214 11.0222 16.6423 11.9684C16.5404 12.2228 16.296 12.3775 16.0377 12.3775Z" fill="white"/>
</g>
</g>
</svg>
