<svg width="15" height="14" viewBox="0 0 15 14" fill="none" xmlns="http://www.w3.org/2000/svg">
<g id="Group">
<path id="Vector" d="M0.777344 13.6722L1.60959 10.623C1.09744 9.7313 0.826813 8.71684 0.826813 7.68191C0.826813 4.43681 3.45739 1.79688 6.68451 1.79688C8.25297 1.79688 9.72249 2.41081 10.8283 3.52175C11.934 4.63269 12.5422 6.11198 12.5422 7.68484C12.5422 10.9299 9.91163 13.5699 6.68451 13.5699H6.6816C5.70095 13.5699 4.73777 13.3214 3.88225 12.8536L0.777344 13.6722Z" fill="#284A0C"/>
<g id="Group_2">
<path id="Vector_2" d="M0.566406 13.8852L1.42775 10.7278C0.898139 9.80394 0.615875 8.7544 0.618785 7.68147C0.618785 4.31943 3.34248 1.58594 6.68891 1.58594C8.31265 1.58594 9.83746 2.22034 10.9811 3.37221C12.1276 4.52407 12.759 6.05599 12.7561 7.68439C12.7561 11.0464 10.0324 13.7799 6.686 13.7799H6.68309C5.66752 13.7799 4.66941 13.5227 3.78188 13.0373L0.566406 13.8852ZM3.9332 11.9323L4.11653 12.0434C4.89057 12.5053 5.7781 12.7479 6.68309 12.7508H6.686C9.46499 12.7508 11.7289 10.4793 11.7289 7.68439C11.7289 6.3308 11.2051 5.05907 10.2536 4.10016C9.30203 3.14125 8.0333 2.61502 6.686 2.61502C3.9041 2.61502 1.64017 4.88659 1.64017 7.68147C1.64017 8.63746 1.90498 9.57006 2.41131 10.377L2.53061 10.5699L2.02137 12.438L3.9332 11.9323Z" fill="white"/>
<path id="Vector_3" d="M5.17101 5.12929C5.05753 4.87497 4.93822 4.86913 4.83055 4.8662C4.74325 4.86328 4.64141 4.86328 4.53956 4.86328C4.43771 4.86328 4.27475 4.90128 4.13508 5.05329C3.9954 5.20529 3.60547 5.57362 3.60547 6.32488C3.60547 7.07322 4.14963 7.79817 4.22529 7.90048C4.30094 8.00279 5.27577 9.59008 6.81513 10.201C8.0955 10.7097 8.35739 10.6074 8.63384 10.581C8.91319 10.5547 9.5301 10.2127 9.65813 9.85609C9.78326 9.49946 9.78326 9.19545 9.74543 9.13114C9.7076 9.06683 9.60576 9.02883 9.45444 8.95283C9.30312 8.87683 8.55818 8.5085 8.4185 8.45589C8.27883 8.40327 8.17698 8.37988 8.07804 8.53189C7.97619 8.68389 7.6852 9.02591 7.5979 9.12822C7.5106 9.23053 7.42039 9.24222 7.26908 9.16622C7.11776 9.09022 6.62889 8.92944 6.04981 8.40911C5.59877 8.00571 5.29323 7.50585 5.20593 7.35384C5.11864 7.20184 5.1972 7.11999 5.27286 7.04398C5.33979 6.97675 5.42418 6.86567 5.49984 6.77797C5.5755 6.69028 5.60168 6.62597 5.65115 6.52365C5.70062 6.42134 5.67734 6.33365 5.63951 6.25764C5.60168 6.18164 5.30487 5.43038 5.17101 5.12929Z" fill="white"/>
<ellipse id="Ellipse 1993" cx="12.6483" cy="1.85988" rx="1.85144" ry="1.85988" fill="#284A0C"/>
</g>
</g>
</svg>
